<?xml version="1.0" standalone="no"?>
<!DOCTYPE svg PUBLIC "-//W3C//DTD SVG 1.1//EN" "http://www.w3.org/Graphics/SVG/1.1/DTD/svg11.dtd" >
<svg>
<metadata>
Created by FontForge 20120731 at Mon Oct 21 22:50:45 2019
 By fw_worker
Copyright 1985, 1987, 1989, 1990, 1993, 1997, 1998, 1999, 2002 Adobe Systems Incorporated. All rights reserved. Times is a trademark of Linotype Corp. registered in the U.S. Patent and Trademark Office and may be registered in certain other jurisdictions in the name of Linotype Corp. or its licensee Linotype GmbH.
</metadata>
<defs>
<font id="TimesLTStd-Italic" horiz-adv-x="500" >
  <font-face 
    font-family="Times LT Std"
    font-weight="400"
    font-style="italic"
    font-stretch="normal"
    units-per-em="1000"
    panose-1="2 2 6 3 5 4 5 9 3 4"
    ascent="683"
    descent="-317"
    x-height="428"
    cap-height="653"
    bbox="-169 -217 1010 883"
    underline-thickness="50"
    underline-position="-50"
    slope="-15.5"
    stemh="32"
    stemv="76"
    unicode-range="U+0020-FB02"
  />
<missing-glyph horiz-adv-x="612" 
d="M112 0v700h500v-700h-500zM362 395l170 255h-340zM392 350l170 -255v510zM192 50h340l-170 255zM162 605v-510l170 255z" />
    <glyph glyph-name="f_i" unicode="fi" 
d="M132 396h-87l7 32h87c28 96 79 253 242 253c46 0 100 -22 100 -69c0 -39 -33 -43 -42 -43c-21 0 -41 14 -41 41c0 26 13 22 13 33s-15 16 -35 16c-95 0 -123 -101 -160 -231h150c28 0 50 2 66 4s27 4 33 4l5 -3v-3c0 -3 -1 -10 -5 -25c-7 -28 -95 -342 -95 -357
c0 -9 7 -11 12 -11c19 0 61 50 77 69l16 -9c-42 -59 -86 -105 -131 -105c-31 0 -49 20 -49 51c0 37 56 227 85 334c1 3 1 6 1 8c0 6 -3 11 -16 11h-155l-72 -320c-28 -123 -84 -283 -201 -283c-65 0 -78 45 -78 62c0 15 10 40 37 40s39 -24 39 -37c0 -14 -9 -19 -9 -28
c0 -10 4 -13 24 -13c55 0 82 105 93 159c23 111 79 398 89 420z" />
    <glyph glyph-name="f_l" unicode="fl" 
d="M216 428h167l36 144v4c0 10 -9 20 -9 32c0 14 12 24 12 29c0 9 -12 23 -42 23c-109 0 -147 -161 -159 -212zM375 396h-166l-69 -310c-41 -179 -107 -290 -202 -290c-70 0 -79 48 -79 61c0 20 12 41 37 41c20 0 39 -17 39 -36c0 -15 -9 -19 -9 -28s3 -13 25 -13
c52 0 79 97 92 158c39 186 83 399 87 417h-89l6 32h91c32 116 97 254 251 254c14 0 31 -3 47 -5c16 -3 30 -6 38 -6s15 3 22 6c7 2 13 5 17 5s5 -4 5 -10c0 -4 -1 -8 -2 -13c-9 -33 -146 -589 -146 -611c0 -10 7 -12 12 -12c18 0 54 42 77 69l16 -9
c-62 -88 -99 -105 -133 -105c-28 0 -47 19 -47 52c0 56 63 267 80 353z" />
    <glyph glyph-name=".notdef" horiz-adv-x="612" 
d="M112 0v700h500v-700h-500zM362 395l170 255h-340zM392 350l170 -255v510zM192 50h340l-170 255zM162 605v-510l170 255z" />
    <glyph glyph-name="space" unicode=" " horiz-adv-x="250" 
 />
    <glyph glyph-name="exclam" unicode="!" horiz-adv-x="333" 
d="M137 177l-17 4c33 150 52 244 72 370c16 98 41 116 70 116c40 0 40 -40 40 -50c0 -41 -10 -60 -67 -189c-31 -71 -67 -167 -98 -251zM39 44c0 18 18 50 52 50c30 0 55 -25 55 -53s-24 -52 -56 -52c-36 0 -51 30 -51 55z" />
    <glyph glyph-name="quotedbl" unicode="&#x22;" horiz-adv-x="420" 
d="M344 421h-21c5 55 14 172 23 204c7 25 33 41 53 41c22 0 33 -14 33 -31s-47 -126 -88 -214zM165 421h-21c5 55 14 172 23 204c7 25 33 41 53 41c22 0 33 -14 33 -31s-47 -126 -88 -214z" />
    <glyph glyph-name="numbersign" unicode="#" 
d="M465 267l-11 -54h-105l-79 -213h-62l80 213h-130l-79 -213h-62l80 213h-95l11 54h105l54 143h-96l11 54h105l80 212h61l-80 -212h130l80 212h61l-80 -212h96l-11 -54h-105l-54 -143h95zM363 410h-130l-54 -143h130z" />
    <glyph glyph-name="dollar" unicode="$" 
d="M282 420l54 221c-5 0 -11 1 -16 1c-69 0 -119 -37 -119 -106c0 -54 39 -86 81 -116zM289 306l-68 -281c31 2 159 10 159 138c0 67 -36 97 -85 138zM497 612l-28 -114l-15 2c0 98 -51 119 -85 133l-56 -237c97 -74 142 -120 142 -200c0 -89 -46 -196 -240 -196l-21 -89
h-35l22 91c-86 16 -138 54 -150 65l27 123l16 3c9 -74 18 -139 115 -161l69 297c-70 47 -135 109 -135 180c0 101 85 160 196 160c7 0 15 -1 22 -1l17 63h34l-16 -68c19 -4 78 -20 121 -51z" />
    <glyph glyph-name="percent" unicode="%" horiz-adv-x="833" 
d="M468 137c0 110 107 234 213 234c20 0 109 -2 109 -110c0 -115 -83 -261 -197 -261c-86 0 -125 53 -125 137zM544 105c0 -23 0 -75 63 -75c94 0 158 153 158 223c0 52 -31 86 -72 86c-93 0 -149 -183 -149 -234zM653 676l-386 -689h-47l348 622l-2 2
c-25 -14 -52 -28 -105 -28c-37 0 -49 4 -65 10c3 -15 7 -31 7 -52c0 -75 -67 -252 -206 -252c-54 0 -118 43 -118 134c0 112 105 239 215 239c30 0 56 -8 71 -21l18 -16c14 -12 37 -17 73 -17c87 0 132 43 157 68h40zM218 323c82 0 159 121 159 228c0 18 -3 30 -9 49
c-54 13 -50 32 -68 32c-64 0 -145 -146 -145 -238c0 -21 0 -71 63 -71z" />
    <glyph glyph-name="ampersand" unicode="&#x26;" horiz-adv-x="778" 
d="M530 350h185v-17c-49 -4 -60 -19 -87 -56c-15 -20 -53 -81 -108 -152c37 -67 80 -94 121 -94c34 0 55 18 71 30l11 -11c-34 -42 -77 -68 -128 -68c-74 0 -114 49 -138 79c-83 -53 -123 -79 -203 -79c-50 0 -178 22 -178 156c0 129 124 183 255 240c-6 61 -7 70 -7 83
c0 125 70 205 161 205c59 0 101 -44 101 -92c0 -91 -112 -147 -172 -177c12 -52 44 -171 87 -237c44 53 79 96 79 138c0 27 -19 31 -50 33v19zM170 167c0 -86 63 -133 130 -133c35 0 92 14 138 56c-46 58 -85 185 -105 255c-1 0 -163 -61 -163 -178zM410 428
c60 38 107 67 107 150c0 56 -30 56 -46 56c-57 0 -66 -72 -66 -127c0 -36 2 -53 5 -79z" />
    <glyph glyph-name="quoteright" unicode="&#x2019;" horiz-adv-x="333" 
d="M160 436l-9 17c20 13 75 50 75 87c0 34 -45 35 -45 79c0 42 42 47 50 47c34 0 59 -29 59 -72c0 -67 -73 -130 -130 -158z" />
    <glyph glyph-name="parenleft" unicode="(" horiz-adv-x="333" 
d="M159 -175l-18 -6c-99 164 -99 310 -99 374c0 165 78 321 260 476l13 -15c-48 -50 -99 -104 -147 -240c-40 -112 -57 -248 -57 -311c0 -67 0 -155 48 -278z" />
    <glyph glyph-name="parenright" unicode=")" horiz-adv-x="333" 
d="M29 -180l-13 15c44 46 102 107 147 238c41 122 57 242 57 330c0 107 -23 206 -49 261l19 5c72 -117 99 -245 99 -375c0 -189 -112 -355 -260 -474z" />
    <glyph glyph-name="asterisk" unicode="*" 
d="M456 582c19 0 36 -15 36 -34c0 -66 -75 -25 -164 -89l37 -19c58 -29 127 -14 127 -62c0 -24 -19 -39 -37 -39c-42 0 -42 53 -129 103l-7 4c0 -101 28 -119 28 -151c0 -25 -17 -40 -39 -40c-28 0 -35 26 -35 39c0 26 29 70 29 126c0 8 -1 17 -2 26
c-10 -10 -44 -21 -77 -63c-16 -20 -34 -43 -60 -43c-24 0 -35 23 -35 33c0 63 77 27 166 88l-12 7c-82 48 -154 19 -154 79c0 14 11 34 34 34c45 0 41 -50 139 -105v5c0 85 -26 113 -26 145c0 25 12 40 37 40c18 0 34 -15 34 -39c0 -34 -27 -74 -27 -127v-27
c28 19 45 29 84 72c31 33 34 37 53 37z" />
    <glyph glyph-name="plus" unicode="+" horiz-adv-x="675" 
d="M305 286v220h66v-220h219v-66h-219v-220h-66v220h-219v66h219z" />
    <glyph glyph-name="comma" unicode="," horiz-adv-x="250" 
d="M5 -129l-9 17c20 13 75 50 75 87c0 34 -45 35 -45 79c0 42 42 47 50 47c34 0 59 -29 59 -72c0 -67 -73 -130 -130 -158z" />
    <glyph glyph-name="hyphen" unicode="-" horiz-adv-x="333" 
d="M282 255l-13 -63h-220l14 63h219z" />
    <glyph glyph-name="period" unicode="." horiz-adv-x="250" 
d="M82 -11c-21 0 -55 16 -55 54c0 32 25 57 55 57s56 -26 56 -57c0 -37 -35 -54 -56 -54z" />
    <glyph glyph-name="slash" unicode="/" horiz-adv-x="278" 
d="M313 666h73l-378 -684h-73z" />
    <glyph glyph-name="zero" unicode="0" 
d="M111 156c0 -116 55 -135 87 -135c134 0 220 320 220 495c0 30 0 132 -86 132c-149 0 -221 -395 -221 -492zM497 426c0 -198 -136 -433 -304 -433c-104 0 -161 103 -161 207c0 270 166 476 305 476c133 0 160 -152 160 -250z" />
    <glyph glyph-name="one" unicode="1" 
d="M49 0v14c59 6 99 9 112 54l138 492c3 11 7 25 7 33c0 32 -29 32 -38 32l-57 -2v15c47 8 186 38 194 38c3 0 4 -3 4 -7c0 -8 -3 -19 -6 -29l-143 -519c-5 -20 -18 -57 -18 -73c0 -28 29 -33 72 -33h14v-15h-279z" />
    <glyph glyph-name="two" unicode="2" 
d="M400 139l17 -7l-50 -132h-355v17l210 224c140 149 144 207 144 240c0 62 -46 122 -123 122c-90 0 -128 -69 -142 -94l-21 7c54 156 185 160 210 160c106 0 162 -92 162 -167c0 -67 -25 -112 -149 -236l-192 -192v-5h190c66 0 82 27 99 63z" />
    <glyph glyph-name="three" unicode="3" 
d="M178 567l-16 5c25 60 100 104 157 104c74 0 146 -42 146 -125c0 -76 -50 -111 -155 -150v-3c26 -12 95 -42 95 -152c0 -111 -91 -253 -276 -253c-59 0 -114 14 -114 59c0 21 10 39 47 39c46 0 79 -60 135 -60c34 0 128 34 128 160c0 129 -75 171 -163 171
c-7 0 -15 0 -22 -1l-1 16c100 14 239 58 239 166c0 67 -49 91 -87 91c-63 0 -98 -47 -113 -67z" />
    <glyph glyph-name="four" unicode="4" 
d="M277 241l96 322h-4l-304 -318v-4h212zM453 241l-14 -65h-100l-46 -176h-79l49 178h-262l20 67l417 431h41l-121 -435h95z" />
    <glyph glyph-name="five" unicode="5" 
d="M238 595l-39 -88c130 -26 220 -98 220 -232c0 -128 -107 -282 -302 -282c-72 0 -102 28 -102 56c0 29 21 41 40 41c45 0 70 -55 124 -55c98 0 171 111 171 198c0 153 -103 175 -219 200v15l104 218h256l-23 -71h-230z" />
    <glyph glyph-name="six" unicode="6" 
d="M520 686l1 -16c-176 -23 -298 -192 -322 -242l4 -2c14 7 28 12 43 15c15 4 30 6 46 6c68 0 169 -42 169 -184c0 -101 -81 -270 -251 -270c-81 0 -180 53 -180 217c0 206 185 457 490 476zM254 411c-138 0 -148 -238 -148 -254c0 -26 0 -138 98 -138
c114 0 168 172 168 262c0 82 -42 130 -118 130z" />
    <glyph glyph-name="seven" unicode="7" 
d="M537 656l-388 -664h-70l367 598l-2 3h-222c-72 0 -99 -32 -133 -72l-14 9l81 136h375z" />
    <glyph glyph-name="eight" unicode="8" 
d="M30 157c0 145 171 196 195 203c-61 65 -87 112 -87 164c0 103 87 152 181 152c66 0 174 -33 174 -143c0 -97 -109 -133 -164 -151c75 -75 115 -136 115 -214c0 -86 -80 -175 -214 -175c-179 0 -200 134 -200 164zM98 154c0 -79 53 -139 139 -139c54 0 132 42 132 138
c0 65 -25 91 -122 191c-26 -8 -149 -63 -149 -190zM216 542c0 -26 0 -57 95 -143c55 26 114 54 114 137c0 48 -26 117 -107 117c-64 0 -102 -44 -102 -111z" />
    <glyph glyph-name="nine" unicode="9" 
d="M23 -17v18c182 31 318 228 329 271l-4 2c-40 -26 -84 -45 -128 -45c-85 0 -151 67 -151 186c0 137 123 261 240 261c103 0 183 -74 183 -222c0 -202 -168 -435 -469 -471zM157 412c0 -32 4 -137 104 -137c31 0 87 17 115 60c25 39 41 141 41 168c0 39 0 147 -99 147
c-113 0 -161 -145 -161 -238z" />
    <glyph glyph-name="colon" unicode=":" horiz-adv-x="333" 
d="M106 -11c-22 0 -56 16 -56 54c0 31 25 57 56 57c29 0 55 -25 55 -57c0 -38 -34 -54 -55 -54zM205 330c-21 0 -55 15 -55 54c0 33 25 57 55 57c31 0 56 -25 56 -57c0 -38 -35 -54 -56 -54z" />
    <glyph glyph-name="semicolon" unicode=";" horiz-adv-x="333" 
d="M36 -129l-9 17c20 13 75 50 75 87c0 34 -45 35 -45 79c0 42 42 47 50 47c34 0 59 -29 59 -72c0 -67 -73 -130 -130 -158zM205 330c-21 0 -55 15 -55 54c0 33 25 57 55 57c31 0 56 -25 56 -57c0 -38 -35 -54 -56 -54z" />
    <glyph glyph-name="less" unicode="&#x3c;" horiz-adv-x="675" 
d="M592 60v-68l-508 230v62l508 230v-68l-425 -193z" />
    <glyph glyph-name="equal" unicode="=" horiz-adv-x="675" 
d="M590 386v-66h-504v66h504zM590 186v-66h-504v66h504z" />
    <glyph glyph-name="greater" unicode="&#x3e;" horiz-adv-x="675" 
d="M84 60l425 193l-425 193v68l508 -230v-62l-508 -230v68z" />
    <glyph glyph-name="question" unicode="?" 
d="M216 174l-17 2c16 194 199 235 199 382c0 25 -7 84 -80 84c-5 0 -70 0 -70 -47c0 -24 15 -31 15 -53c0 -30 -30 -35 -40 -35c-24 0 -39 18 -39 47c0 71 66 110 137 110c96 0 151 -53 151 -127c0 -70 -33 -101 -134 -183c-43 -35 -98 -79 -115 -151zM238 41
c0 -20 -16 -53 -52 -53c-31 0 -54 22 -54 51s23 52 53 52c37 0 53 -33 53 -50z" />
    <glyph glyph-name="at" unicode="@" horiz-adv-x="920" 
d="M570 392c0 42 -13 64 -42 64c-48 0 -136 -72 -136 -192c0 -59 27 -83 62 -83c42 0 103 71 116 211zM587 449l10 37h69l-65 -252c-1 -5 -3 -12 -3 -21c0 -19 7 -42 38 -42c82 0 130 116 130 202c0 113 -104 262 -286 262c-152 0 -279 -116 -279 -337
c0 -141 115 -277 288 -277c88 0 140 21 197 47l12 -29c-63 -30 -131 -57 -208 -57c-259 0 -372 194 -372 327c0 213 166 357 362 357c183 0 326 -125 326 -292c0 -101 -67 -236 -185 -236c-65 0 -88 56 -88 69v1h-2c-12 -17 -57 -64 -115 -69h-3c-29 0 -92 14 -92 123
c0 70 62 238 195 238c47 0 58 -28 71 -51z" />
    <glyph glyph-name="A" unicode="A" horiz-adv-x="611" 
d="M368 668h26l94 -566c12 -70 18 -81 76 -86v-16h-246v16c52 4 78 10 78 50c0 1 0 15 -2 29l-20 131h-220l-57 -113c-14 -27 -20 -40 -20 -62c0 -26 13 -31 59 -35v-16h-187v16c38 9 47 12 129 152zM175 262h194l-44 259h-1z" />
    <glyph glyph-name="B" unicode="B" horiz-adv-x="611" 
d="M-8 0v16c49 9 64 12 81 74l123 442c6 23 11 45 11 62c0 37 -30 40 -77 43v16h258c104 0 200 -34 200 -149c0 -90 -78 -133 -172 -152v-2c53 -23 123 -53 123 -151c0 -137 -137 -199 -265 -199h-282zM171 75c0 -38 33 -45 62 -45c141 0 198 79 198 178
c0 51 -24 86 -54 105c-25 16 -71 17 -139 18c-15 -64 -67 -237 -67 -256zM313 595l-65 -232c10 0 21 -1 32 -1c93 0 207 18 207 157c0 68 -37 104 -112 104c-55 0 -58 -13 -62 -28z" />
    <glyph glyph-name="C" unicode="C" horiz-adv-x="667" 
d="M652 465l-18 3c-2 28 -11 162 -154 162c-200 0 -302 -242 -302 -389c0 -131 55 -214 174 -214c113 0 183 71 231 118l17 -14c-37 -44 -126 -149 -272 -149c-116 0 -262 70 -262 270c0 193 177 414 406 414c72 0 133 -24 156 -24c29 0 35 12 40 22h21z" />
    <glyph glyph-name="D" unicode="D" horiz-adv-x="722" 
d="M130 637v16h278c230 0 292 -161 292 -266c0 -202 -161 -387 -455 -387h-253v16c49 9 64 12 81 74l123 442c3 11 11 42 11 62c0 34 -26 39 -77 43zM313 594l-121 -432c-9 -33 -22 -77 -22 -93c0 -33 24 -39 71 -39c315 0 348 308 348 369c0 101 -34 224 -211 224
c-57 0 -61 -15 -65 -29z" />
    <glyph glyph-name="E" unicode="E" horiz-adv-x="611" 
d="M634 653l-31 -153l-21 2c1 16 2 29 2 41c0 62 -27 77 -185 77c-72 0 -74 -6 -80 -26l-66 -233c161 2 167 11 189 42c9 14 18 33 28 55l18 -4l-68 -232l-20 5c4 15 7 31 7 47c0 49 0 49 -163 54c-64 -231 -68 -249 -68 -261c0 -31 43 -34 69 -34c193 0 236 38 307 137
l16 -8l-62 -162h-507v16c49 9 64 12 81 74l123 442c3 10 11 50 11 61c0 35 -26 40 -77 44v16h497z" />
    <glyph glyph-name="F" unicode="F" horiz-adv-x="611" 
d="M645 653l-32 -153l-21 2c1 14 3 28 3 42c0 63 -36 76 -184 76c-63 0 -74 -3 -81 -26l-66 -233c168 3 170 3 216 93l18 -5l-76 -234l-17 5c3 14 8 37 8 58c0 44 -33 47 -50 47c-49 0 -89 2 -108 3l-62 -223c-6 -22 -9 -34 -9 -45c0 -40 42 -42 76 -44v-16h-252v16
c51 8 64 10 82 74l123 442c4 14 11 44 11 62c0 37 -25 39 -77 43v16h498z" />
    <glyph glyph-name="G" unicode="G" horiz-adv-x="722" 
d="M708 662l-49 -197l-18 3c-9 131 -109 164 -180 164c-201 0 -299 -247 -299 -411c0 -78 32 -202 202 -202c51 0 76 11 105 34s65 197 65 213c0 29 -24 32 -78 37v16h266v-16c-53 -4 -80 -8 -97 -72l-49 -187c-64 -40 -158 -62 -231 -62c-264 0 -293 215 -293 258
c0 229 191 426 405 426c85 0 147 -34 173 -34c39 0 53 20 63 34z" />
    <glyph glyph-name="H" unicode="H" horiz-adv-x="722" 
d="M767 653v-16c-49 -9 -65 -11 -82 -74l-132 -481c-2 -9 -3 -17 -3 -23c0 -36 32 -39 78 -43v-16h-273v16c46 6 83 10 101 74l65 236h-285l-66 -244c-2 -9 -3 -17 -3 -23c0 -34 27 -37 71 -43v-16h-246v16c49 9 64 12 81 74l123 442c6 20 11 44 11 62c0 34 -27 39 -77 43
v16h273v-16c-35 -3 -83 -8 -101 -74l-54 -195h285l46 164c6 20 11 44 11 62c0 35 -27 38 -70 43v16h247z" />
    <glyph glyph-name="I" unicode="I" horiz-adv-x="333" 
d="M-8 0v16c49 9 64 12 81 74l123 442c6 20 11 44 11 62c0 35 -27 38 -70 43v16h247v-16c-49 -9 -65 -11 -82 -74l-123 -443c-6 -20 -11 -40 -11 -64c0 -32 25 -35 68 -40v-16h-244z" />
    <glyph glyph-name="J" unicode="J" horiz-adv-x="444" 
d="M491 653v-16c-51 -8 -64 -10 -82 -74l-103 -371c-29 -106 -68 -210 -199 -210c-53 0 -113 27 -113 88c0 31 17 54 46 54c26 0 48 -22 48 -47c0 -6 -1 -15 -1 -25c0 -25 10 -39 35 -39c34 0 43 34 49 54l131 465c4 15 12 43 12 63c0 35 -32 38 -77 42v16h254z" />
    <glyph glyph-name="K" unicode="K" horiz-adv-x="667" 
d="M722 653v-16c-33 -5 -68 -31 -75 -36l-300 -226l174 -303c28 -49 38 -50 97 -56v-16h-275v16c54 6 75 8 75 30c0 25 -26 73 -38 94l-115 198l-8 1l-60 -219c-9 -32 -14 -44 -14 -58c0 -38 19 -40 72 -46v-16h-248v16c53 9 65 11 82 74l123 442c6 20 11 44 11 62
c0 34 -27 39 -77 43v16h273v-16c-33 -3 -83 -8 -101 -74l-51 -188l6 -1l144 101c68 48 144 112 144 137c0 17 -6 20 -61 25v16h222z" />
    <glyph glyph-name="L" unicode="L" horiz-adv-x="556" 
d="M403 653v-16c-35 -3 -83 -8 -101 -74l-123 -443l-9 -38c-1 -4 -1 -8 -1 -11c0 -35 50 -35 102 -35c121 0 202 3 268 149l20 -6l-58 -179h-509v16c49 9 64 12 81 74l123 442c6 20 11 44 11 62c0 34 -27 39 -77 43v16h273z" />
    <glyph glyph-name="M" unicode="M" horiz-adv-x="833" 
d="M873 653v-16c-53 -9 -65 -11 -82 -74l-123 -443c-6 -21 -11 -40 -11 -60c0 -37 20 -39 77 -44v-16h-273v16c64 6 87 23 101 75l127 462h-3l-372 -553h-17l-60 536h-4l-115 -423c-5 -19 -9 -43 -9 -50c0 -40 39 -45 71 -47v-16h-198v16c45 7 65 14 98 130l106 372
c11 40 22 71 22 80c0 21 -19 38 -74 39v16h181l55 -489h3l333 489h167z" />
    <glyph glyph-name="N" unicode="N" horiz-adv-x="667" 
d="M727 653v-16c-65 -14 -70 -28 -104 -149l-144 -503h-18l-228 544h-4l-112 -416c-7 -26 -9 -44 -9 -52c0 -40 41 -43 70 -45v-16h-198v16c55 8 66 18 103 148l119 417c-17 37 -38 53 -86 56v16h161l206 -495h3l101 376c4 14 11 33 11 50c0 39 -15 49 -70 53v16h199z" />
    <glyph glyph-name="O" unicode="O" horiz-adv-x="722" 
d="M699 423c0 -201 -196 -441 -420 -441c-85 0 -219 55 -219 245c0 221 228 439 407 439c120 0 232 -75 232 -243zM165 181c0 -23 0 -166 130 -166c203 0 299 335 299 457c0 91 -36 161 -131 161c-198 0 -298 -322 -298 -452z" />
    <glyph glyph-name="P" unicode="P" horiz-adv-x="611" 
d="M146 637v16h248c44 0 211 -1 211 -152c0 -74 -57 -196 -257 -196c-70 0 -84 3 -106 8l-53 -193c-12 -44 -12 -44 -12 -61c0 -34 16 -36 68 -43v-16h-245v16c51 8 64 10 82 74l118 425c7 23 17 63 17 77c0 37 -29 40 -71 45zM322 595l-71 -248c20 -3 32 -5 45 -5
c73 0 206 0 206 165c0 74 -30 116 -140 116c-30 0 -36 -16 -40 -28z" />
    <glyph glyph-name="Q" unicode="Q" horiz-adv-x="722" 
d="M279 -16l-54 -57l25 1h4c27 0 68 -10 110 -21c42 -10 84 -21 114 -21c101 0 135 35 175 76l15 -11c-71 -107 -193 -133 -240 -133c-87 0 -191 44 -242 44c-37 0 -82 -10 -117 -31l-10 15c71 51 80 57 177 142c-80 15 -176 78 -176 239c0 221 228 439 407 439
c120 0 232 -75 232 -243c0 -201 -196 -439 -420 -439zM165 181c0 -23 0 -164 130 -164c203 0 299 333 299 455c0 91 -36 161 -131 161c-198 0 -298 -322 -298 -452z" />
    <glyph glyph-name="R" unicode="R" horiz-adv-x="611" 
d="M567 16v-16h-148l-123 324l-65 5l-56 -209c-12 -45 -12 -49 -12 -57c0 -38 14 -40 68 -47v-16h-244v16c51 9 63 11 81 74l123 442c3 11 12 46 12 58c0 39 -24 41 -71 47v16h248c36 0 208 0 208 -144c0 -79 -54 -149 -197 -176l93 -245c13 -35 29 -70 83 -72zM308 595
l-65 -229c24 -4 32 -5 59 -5c144 0 181 78 181 153c0 86 -62 109 -119 109c-45 0 -49 -10 -56 -28z" />
    <glyph glyph-name="S" unicode="S" 
d="M468 468l-18 3c-1 57 -4 162 -125 162c-55 0 -106 -33 -106 -100c0 -47 12 -71 99 -156c92 -92 113 -131 113 -197c0 -94 -70 -198 -203 -198c-69 0 -120 36 -154 36c-28 0 -35 -20 -39 -33h-18l34 223l20 -2c-1 -8 -2 -13 -2 -21c0 -89 56 -168 146 -168
c94 0 129 82 129 132c0 64 -37 95 -70 130c-138 147 -143 158 -143 223c0 97 79 164 172 164c45 0 69 -6 87 -12c19 -7 31 -13 51 -13c23 0 32 8 44 26h23z" />
    <glyph glyph-name="T" unicode="T" horiz-adv-x="556" 
d="M633 653l-44 -163l-17 2c2 15 3 28 3 39c0 71 -40 87 -104 87h-55l-139 -498c-8 -28 -12 -43 -12 -57c0 -41 15 -42 90 -47v-16h-290v16c45 4 88 8 106 74l144 528c-130 0 -180 0 -238 -123l-18 4l42 154h532z" />
    <glyph glyph-name="U" unicode="U" horiz-adv-x="722" 
d="M765 653v-16c-64 -14 -68 -25 -104 -149l-83 -285c-39 -133 -110 -221 -263 -221c-102 0 -213 55 -213 169c0 101 103 393 103 443c0 36 -20 38 -78 43v16h273v-16c-47 -5 -83 -12 -101 -78c-13 -46 -107 -361 -107 -415c0 -89 75 -121 139 -121c138 0 187 117 215 218
c8 31 91 327 91 345c0 44 -33 48 -71 51v16h199z" />
    <glyph glyph-name="V" unicode="V" horiz-adv-x="611" 
d="M688 653v-16c-31 0 -50 -30 -56 -40l-373 -615h-19l-85 520c-20 123 -23 128 -79 135v16h241v-16c-47 -5 -77 -9 -77 -50c0 -5 0 -10 1 -16l65 -436h5l202 349c9 16 52 90 52 118c0 29 -44 33 -63 35v16h186z" />
    <glyph glyph-name="W" unicode="W" horiz-adv-x="833" 
d="M906 653v-16c-36 -11 -48 -20 -75 -72l-303 -583h-20l-50 454h-5l-222 -454h-19l-62 517c-16 130 -16 130 -79 138v16h236v-16c-46 -5 -73 -9 -73 -54c0 -5 0 -10 1 -15l39 -371l4 -30h3l170 343l-9 69c-6 45 -15 57 -75 58v16h238v-16c-41 -4 -68 -11 -68 -58
c0 -4 0 -9 1 -15l40 -397h3l184 363c4 8 21 44 21 64c0 37 -21 39 -65 43v16h185z" />
    <glyph glyph-name="X" unicode="X" horiz-adv-x="611" 
d="M655 653v-16c-29 -10 -61 -22 -125 -95l-169 -194l102 -258c26 -64 41 -66 104 -74v-16h-273v16c55 4 76 6 76 40c0 14 -4 32 -11 48l-67 165l-151 -172c-12 -14 -21 -30 -21 -46c0 -34 36 -35 65 -35v-16h-214v16c27 6 40 12 68 34c20 15 77 79 235 263l-106 263
c-17 43 -33 57 -92 61v16h264v-16c-46 -5 -71 -12 -71 -44c0 -11 8 -37 15 -53l59 -147l145 167c10 12 20 24 20 41c0 27 -22 32 -61 36v16h208z" />
    <glyph glyph-name="Y" unicode="Y" horiz-adv-x="556" 
d="M91 637v16h239v-16c-46 -4 -72 -6 -72 -38c0 -27 43 -160 67 -252c45 56 188 214 188 256c0 27 -18 29 -69 34v16h189v-16c-27 -13 -38 -21 -70 -61l-219 -270l-29 -101c-16 -54 -37 -117 -37 -146c0 -37 19 -38 89 -43v-16h-289v16c47 4 86 8 105 74l61 212l-77 269
c-16 57 -24 58 -76 66z" />
    <glyph glyph-name="Z" unicode="Z" horiz-adv-x="556" 
d="M606 653v-14l-483 -603h161c164 0 201 32 250 135l19 -3l-54 -168h-505v14l479 603h-171c-153 0 -175 -46 -209 -115l-19 5l46 146h486z" />
    <glyph glyph-name="bracketleft" unicode="[" horiz-adv-x="389" 
d="M275 601l-160 -678c-2 -7 -4 -17 -4 -20c0 -28 33 -29 49 -29h56l-7 -27h-188l197 816h173l-7 -27h-62c-27 0 -41 -8 -47 -35z" />
    <glyph glyph-name="backslash" unicode="\" horiz-adv-x="278" 
d="M-41 666h72l288 -684h-71z" />
    <glyph glyph-name="bracketright" unicode="]" horiz-adv-x="389" 
d="M127 -90l161 678c2 7 4 17 4 20c0 28 -35 28 -49 28h-57l7 27h189l-197 -816h-173l7 27h62c38 0 42 18 46 36z" />
    <glyph glyph-name="asciicircum" unicode="^" horiz-adv-x="422" 
d="M68 301h-68l181 365h60l181 -365h-68l-143 289z" />
    <glyph glyph-name="underscore" unicode="_" 
d="M0 -75h500v-50h-500v50z" />
    <glyph glyph-name="quoteleft" unicode="&#x2018;" horiz-adv-x="333" 
d="M301 666l9 -17c-20 -13 -75 -50 -75 -87c0 -34 45 -35 45 -79c0 -42 -42 -47 -50 -47c-34 0 -59 29 -59 72c0 67 73 130 130 158z" />
    <glyph glyph-name="a" unicode="a" 
d="M464 110l12 -10c-60 -74 -94 -110 -137 -110c-42 0 -42 26 -42 43c0 23 5 45 21 106l-2 2c-83 -122 -136 -152 -196 -152c-100 0 -103 89 -103 118c0 147 153 334 286 334c43 0 76 -26 79 -54h2l10 44l3 3l61 7l7 -3c-3 -12 -95 -353 -95 -384c0 -7 6 -13 14 -13
c15 0 35 25 80 69zM101 109c0 -53 33 -71 60 -71c106 0 204 216 204 314c0 48 -28 67 -57 67c-117 0 -207 -220 -207 -310z" />
    <glyph glyph-name="b" unicode="b" 
d="M388 307c0 31 -10 85 -73 85c-110 0 -206 -242 -206 -347c0 -7 0 -33 47 -33c137 0 232 211 232 295zM110 643v17c50 6 101 13 153 23l5 -5c-22 -82 -68 -268 -102 -381l2 -1c33 52 96 145 186 145c70 0 119 -48 119 -121c0 -158 -167 -331 -320 -331
c-53 0 -130 31 -130 53v4l136 501c7 28 16 53 16 67c0 23 -7 28 -65 29z" />
    <glyph glyph-name="c" unicode="c" horiz-adv-x="444" 
d="M350 106l16 -10c-25 -32 -83 -107 -188 -107c-65 0 -148 25 -148 158c0 141 138 294 286 294c84 0 109 -50 109 -81c0 -28 -22 -46 -47 -46s-40 14 -40 37c0 26 15 32 15 49c0 15 -20 20 -38 20c-130 0 -199 -177 -199 -273c0 -77 30 -122 91 -122c60 0 107 41 143 81z
" />
    <glyph glyph-name="d" unicode="d" 
d="M163 37c95 0 193 190 193 314c0 23 0 67 -47 67c-112 0 -207 -216 -207 -307c0 -17 0 -74 61 -74zM463 111l12 -10c-43 -67 -108 -114 -141 -114c-39 0 -47 25 -47 46c0 23 4 46 12 81l-2 2c-72 -110 -128 -127 -178 -127c-83 0 -104 66 -104 118c0 151 170 334 289 334
c56 0 63 -33 67 -55l2 2l43 159c8 28 15 53 15 67c0 23 -7 28 -62 29v17c51 5 102 12 153 23l5 -5c-43 -174 -164 -600 -164 -616c0 -15 8 -22 18 -22c20 0 40 23 82 71z" />
    <glyph glyph-name="e" unicode="e" horiz-adv-x="444" 
d="M152 252l-17 -44c206 42 211 162 211 170c0 21 -10 40 -35 40c-54 0 -122 -77 -159 -166zM358 109l12 -12c-11 -16 -102 -108 -202 -108c-105 0 -137 78 -137 141c0 143 158 311 299 311c51 0 82 -24 82 -68c0 -79 -94 -160 -256 -183l-28 -4c-5 -21 -10 -41 -10 -61
c0 -68 52 -91 94 -91c54 0 96 34 146 75z" />
    <glyph glyph-name="f" unicode="f" horiz-adv-x="278" 
d="M35 396l7 32h92c26 85 76 250 202 250c72 0 88 -45 88 -65s-18 -40 -41 -40c-32 0 -38 27 -38 38c0 22 10 22 10 33c0 8 -10 12 -23 12c-82 0 -112 -177 -121 -228h108l-6 -32h-109l-72 -320c-28 -122 -84 -283 -201 -283c-31 0 -72 13 -78 59c0 3 0 41 36 43h2
c14 0 38 -13 38 -37c0 -17 -9 -17 -9 -28c0 -8 7 -16 19 -16c64 0 90 122 98 162l88 420h-90z" />
    <glyph glyph-name="g" unicode="g" 
d="M472 405v-39h-50c6 -19 9 -39 9 -59c0 -74 -95 -156 -183 -156c-13 0 -27 4 -40 4c-14 0 -36 -27 -36 -40c0 -53 213 -37 213 -175c0 -85 -78 -146 -215 -146c-109 0 -162 56 -162 111c0 57 33 79 117 134c-12 9 -27 21 -27 40c0 31 43 60 77 83c-36 16 -79 40 -79 109
c0 112 116 170 198 170c41 0 66 -9 84 -18c17 -9 26 -18 33 -18h61zM325 -89c0 45 -36 62 -55 71c-18 9 -115 46 -123 46c-6 0 -40 -27 -43 -30c-41 -35 -41 -62 -41 -85c0 -93 108 -97 123 -97c90 0 139 45 139 95zM352 351c0 39 -15 68 -57 68c-77 0 -121 -102 -121 -169
c0 -45 17 -78 62 -78c66 0 116 96 116 179z" />
    <glyph glyph-name="h" unicode="h" 
d="M465 117l13 -12c-36 -52 -79 -114 -145 -114c-32 0 -45 19 -45 46c0 26 82 313 82 326c0 17 -13 27 -29 27c-50 0 -134 -113 -154 -141c-45 -68 -60 -123 -93 -249h-75l132 501c11 42 27 99 27 114c0 12 -8 25 -41 26l-26 -1v16c52 6 105 15 157 27l5 -5l-118 -439l2 -2
c31 50 133 204 223 204c22 0 68 -7 68 -72c0 -35 -81 -291 -81 -312c0 -12 8 -19 16 -19c20 0 44 31 82 79z" />
    <glyph glyph-name="i" unicode="i" horiz-adv-x="278" 
d="M222 114l13 -11c-39 -59 -83 -114 -139 -114c-47 0 -47 44 -47 62c0 47 79 295 79 323c0 21 -8 26 -63 26v16c38 2 121 18 160 25l3 -2l-88 -322c-4 -14 -16 -54 -16 -66c0 -7 7 -15 16 -15c12 0 41 20 82 78zM264 599c0 -20 -16 -51 -49 -51c-25 0 -48 17 -48 52
s23 54 47 54c33 0 50 -33 50 -55z" />
    <glyph glyph-name="j" unicode="j" horiz-adv-x="278" 
d="M59 -3l72 292c11 41 16 64 16 77c0 3 0 6 -1 8c0 17 -5 24 -39 27l-34 -1v16c41 2 131 18 170 25l3 -2l-104 -411c-41 -160 -99 -235 -188 -235c-33 0 -78 15 -78 64c0 4 4 39 41 39c20 0 40 -15 40 -36s-13 -21 -13 -33c0 -10 11 -11 20 -11c51 0 76 104 95 181z
M276 599c0 -20 -16 -51 -49 -51c-25 0 -48 17 -48 52s23 54 47 54c33 0 50 -33 50 -55z" />
    <glyph glyph-name="k" unicode="k" horiz-adv-x="444" 
d="M414 109l15 -11c-38 -72 -67 -109 -111 -109c-31 0 -49 23 -79 82c-12 23 -50 111 -60 141l-42 -32l-48 -180h-75l127 483c9 36 31 110 33 132c0 22 -29 25 -54 25h-14v16c52 6 104 15 156 27l5 -5l-119 -453l2 -2c55 43 183 139 183 170c0 19 -28 19 -55 19v16h183v-16
c-49 -2 -87 -32 -225 -154c72 -171 91 -217 117 -217c22 0 32 18 61 68z" />
    <glyph glyph-name="l" unicode="l" horiz-adv-x="278" 
d="M228 123l13 -9c-51 -77 -90 -125 -152 -125c-44 0 -48 34 -48 62c0 21 145 543 145 564c0 22 -29 25 -54 25h-14v16c52 6 104 15 156 27l5 -5l-151 -579c-2 -9 -10 -36 -10 -47c0 -6 0 -20 15 -20c25 0 46 28 95 91z" />
    <glyph glyph-name="m" unicode="m" horiz-adv-x="722" 
d="M689 117l15 -12l-5 -7c-36 -51 -86 -107 -142 -107c-42 0 -42 35 -42 49c0 27 78 306 78 326c0 15 -9 23 -21 23c-41 0 -113 -88 -144 -137c-48 -76 -65 -139 -94 -252h-75c26 97 95 343 95 362c0 27 -13 27 -22 27c-45 0 -121 -101 -148 -141c-40 -60 -60 -126 -97 -248
h-75c16 66 98 348 98 370s-15 24 -64 24v16c54 10 107 20 160 31l3 -2l-56 -200l2 -2c30 49 133 204 217 204c38 0 59 -23 59 -65c0 -14 -23 -97 -37 -137l2 -2c70 116 151 204 217 204c36 0 59 -27 59 -67c0 -34 -81 -302 -81 -316c0 -17 3 -20 15 -20c19 0 45 32 83 79z
" />
    <glyph glyph-name="n" unicode="n" 
d="M460 117l14 -13c-50 -67 -85 -113 -139 -113c-46 0 -48 30 -48 59c0 24 74 268 74 308c0 18 -6 32 -25 32c-48 0 -111 -86 -147 -142c-46 -69 -59 -112 -100 -248h-75c31 113 98 347 98 368c0 15 -10 26 -64 26v16c54 10 108 20 162 31l3 -2l-64 -209l2 -2
c47 74 139 213 222 213c46 0 69 -24 69 -66c0 -43 -80 -290 -80 -320c0 -15 14 -17 16 -17c20 0 45 32 82 79z" />
    <glyph glyph-name="o" unicode="o" 
d="M321 441c116 0 147 -82 147 -148c0 -123 -137 -304 -290 -304c-106 0 -151 61 -151 144c0 147 148 308 294 308zM314 420c-112 0 -203 -199 -203 -317c0 -57 30 -93 80 -93c114 0 193 207 193 314c0 52 -22 96 -70 96z" />
    <glyph glyph-name="p" unicode="p" 
d="M379 313c0 27 -1 85 -66 85c-47 0 -105 -46 -131 -114c-25 -64 -65 -200 -65 -239c0 -26 25 -37 50 -37c122 0 212 186 212 305zM56 403l-2 16l155 22c2 0 5 -1 5 -5c0 -2 -1 -5 -2 -8l-27 -93l2 -2c24 35 81 108 163 108c89 0 119 -59 119 -131
c0 -155 -160 -321 -298 -321c-25 0 -45 5 -68 17c-9 -34 -37 -144 -37 -164c0 -32 38 -32 64 -32v-15h-205v16c53 0 59 27 67 59c27 112 129 484 129 505c0 17 -18 29 -39 29h-3z" />
    <glyph glyph-name="q" unicode="q" 
d="M391 -191v-18h-241v16c55 4 80 8 94 53l86 285l-2 2c-53 -77 -111 -158 -200 -158c-77 0 -103 57 -103 125c0 137 161 327 291 327c56 0 69 -33 78 -59h2l14 44h73l-164 -577c-1 -4 -2 -8 -2 -11c0 -26 33 -29 59 -29h15zM111 116c0 -43 21 -74 56 -74
c105 0 213 213 213 311c0 45 -29 66 -60 66c-93 0 -209 -187 -209 -303z" />
    <glyph glyph-name="r" unicode="r" horiz-adv-x="389" 
d="M121 0h-76l81 292c10 37 16 71 16 80c0 14 -5 30 -36 30c-11 0 -22 -3 -33 -5v17c51 7 110 20 155 27l3 -2l-49 -199l2 -2l8 20c33 66 109 183 172 183c23 0 48 -15 48 -49c0 -52 -36 -52 -47 -52c-43 0 -28 36 -52 36c-31 0 -91 -111 -99 -126
c-38 -72 -52 -117 -93 -250z" />
    <glyph glyph-name="s" unicode="s" horiz-adv-x="389" 
d="M36 146h16c7 -44 23 -136 104 -136c56 0 72 48 72 81c0 66 -119 162 -119 239c0 31 14 111 120 111c45 0 65 -17 95 -17c17 0 23 10 28 18h14l-20 -139h-16c-5 57 -29 115 -94 115c-22 0 -54 -9 -54 -58c0 -63 122 -152 122 -237c0 -109 -93 -134 -149 -134
c-30 0 -70 19 -99 19c-14 0 -18 -10 -24 -21h-16z" />
    <glyph glyph-name="t" unicode="t" horiz-adv-x="278" 
d="M296 428l-5 -32h-84l-88 -333c-1 -3 -1 -5 -1 -8c0 -9 5 -17 16 -17c20 0 55 47 80 79l13 -7c-51 -77 -90 -121 -142 -121c-20 0 -48 10 -48 40c0 15 19 76 23 92l72 275h-74c0 2 -1 4 -1 6c0 4 1 7 3 10c6 9 34 16 51 25c33 17 81 62 109 97c4 5 7 12 15 12h4
c4 0 6 -4 6 -9c0 -2 -1 -4 -1 -6l-28 -103h80z" />
    <glyph glyph-name="u" unicode="u" 
d="M461 117l14 -9c-63 -91 -89 -117 -139 -117c-45 0 -47 37 -47 52c0 18 20 102 43 184h-3c-68 -113 -142 -238 -232 -238c-36 0 -55 15 -55 59s76 296 76 323c0 29 -19 29 -60 29v14c50 6 100 15 150 27l3 -2l-91 -363c-1 -3 -1 -6 -1 -9c0 -12 5 -25 22 -25
c43 0 106 94 140 146c49 74 71 137 110 244h74l-79 -299c-6 -20 -19 -64 -19 -79c0 -5 1 -16 12 -16c19 0 47 35 82 79z" />
    <glyph glyph-name="v" unicode="v" horiz-adv-x="444" 
d="M21 403v13c73 11 122 25 127 25h2c8 0 9 -1 14 -20c30 -132 36 -214 43 -351l31 32c57 59 137 178 137 228c0 39 -42 28 -42 82c0 15 16 29 36 29c33 0 57 -26 57 -63c0 -92 -149 -270 -182 -305c-66 -71 -84 -91 -99 -91c-9 0 -9 13 -9 30c0 72 -13 234 -23 292
c-14 78 -17 100 -66 100c-8 0 -16 0 -26 -1z" />
    <glyph glyph-name="w" unicode="w" horiz-adv-x="667" 
d="M16 403v14c57 8 118 24 127 24c6 0 9 -2 19 -56c18 -101 28 -238 28 -256h2l191 302c3 5 6 9 12 9c7 0 7 -5 8 -7l32 -359c88 109 165 206 165 258c0 36 -43 41 -43 74c0 17 9 35 38 35c37 0 53 -27 53 -56c0 -87 -155 -282 -201 -336c-40 -48 -53 -67 -64 -67
s-11 14 -12 30l-29 316h-2c-18 -32 -42 -74 -87 -153c-97 -172 -104 -193 -119 -193c-13 0 -13 33 -13 47l-4 88c-3 67 -12 153 -21 208c-11 68 -16 79 -49 79h-11z" />
    <glyph glyph-name="x" unicode="x" horiz-adv-x="444" 
d="M402 111l14 -8c-71 -114 -100 -114 -123 -114c-29 0 -44 14 -57 67l-30 120c-48 -66 -90 -120 -124 -157c-17 -19 -29 -30 -60 -30c-33 0 -49 19 -49 43c0 16 12 34 34 34s40 -19 58 -19c17 0 43 34 133 165c0 9 -34 142 -35 147c-9 31 -13 45 -40 45
c-9 0 -23 -3 -55 -11l-4 15c27 9 93 33 125 33c22 0 37 0 55 -88l11 -55c52 82 99 143 151 143c19 0 41 -12 41 -36c0 -18 -10 -37 -34 -37s-31 17 -53 17c-29 0 -97 -121 -97 -121c0 -18 34 -154 40 -179c4 -16 11 -41 31 -41c21 0 41 37 68 67z" />
    <glyph glyph-name="y" unicode="y" horiz-adv-x="444" 
d="M15 400v17c48 8 126 24 144 24c13 0 72 -178 85 -253l20 -116c43 70 122 205 122 258c0 41 -54 30 -54 76c0 14 11 35 37 35c37 0 57 -26 57 -62c0 -119 -280 -585 -399 -585c-8 0 -51 3 -51 45c0 21 17 38 38 38c30 0 43 -28 61 -28c16 0 29 9 63 49c25 29 67 78 67 105
c0 38 -42 213 -59 267c-27 91 -40 134 -97 134c-15 0 -22 -1 -34 -4z" />
    <glyph glyph-name="z" unicode="z" horiz-adv-x="389" 
d="M81 309l-16 4l31 115h284v-11l-290 -344c66 -14 83 -33 135 -100c26 -33 45 -33 55 -33c12 0 28 3 28 16c0 11 -14 22 -14 44c0 17 12 31 35 31c9 0 34 -5 34 -37c0 -38 -43 -75 -94 -75c-75 0 -147 86 -217 86c-17 0 -32 -7 -45 -18l-9 9l310 372h-146
c-38 0 -59 -3 -81 -59z" />
    <glyph glyph-name="braceleft" unicode="{" horiz-adv-x="400" 
d="M407 687l-3 -11c-67 -16 -91 -55 -109 -124l-45 -168c-19 -72 -42 -111 -110 -128l-1 -2c19 -8 53 -24 53 -64c0 -23 -16 -86 -33 -147c-16 -62 -33 -121 -33 -139c0 -46 21 -62 53 -70l-3 -11c-94 0 -125 27 -125 82c0 49 64 230 66 287v4c0 28 -11 46 -52 59
c70 18 88 50 105 114l48 178c32 120 97 140 189 140z" />
    <glyph glyph-name="bar" unicode="|" horiz-adv-x="275" 
d="M105 783h66v-1000h-66v1000z" />
    <glyph glyph-name="braceright" unicode="}" horiz-adv-x="400" 
d="M230 141l-48 -178c-32 -120 -97 -140 -189 -140l3 11c67 16 91 55 109 124l45 168c19 72 42 111 110 128l1 2c-19 8 -53 24 -53 64c0 23 16 86 33 147c16 62 33 121 33 139c0 46 -21 62 -53 70l3 11c94 0 125 -27 125 -82c0 -49 -64 -230 -66 -287v-4
c0 -28 11 -46 52 -59c-70 -18 -88 -50 -105 -114z" />
    <glyph glyph-name="asciitilde" unicode="~" horiz-adv-x="541" 
d="M466 323l36 -50c-30 -42 -63 -86 -125 -86c-37 0 -69 15 -102 33c-32 18 -69 35 -115 35c-44 0 -68 -37 -84 -72l-36 50c22 42 58 86 125 86c34 0 73 -15 111 -32c37 -16 75 -36 102 -36c40 0 65 37 88 72z" />
    <glyph glyph-name="exclamdown" unicode="&#xa1;" horiz-adv-x="389" 
d="M224 285l17 -4c-33 -150 -52 -244 -72 -370c-16 -98 -41 -116 -70 -116c-40 0 -40 40 -40 50c0 41 10 60 67 189c31 71 67 167 98 251zM322 418c0 -18 -18 -50 -52 -50c-30 0 -55 25 -55 53s24 52 56 52c36 0 51 -30 51 -55z" />
    <glyph glyph-name="cent" unicode="&#xa2;" 
d="M414 560l-42 -120c77 -3 100 -50 100 -80c0 -28 -22 -46 -47 -46s-40 14 -40 37c0 26 15 32 15 49c0 14 -18 20 -35 20l-137 -391c7 -3 16 -4 26 -4c60 0 107 41 143 81l16 -10c-25 -32 -83 -107 -188 -107c-3 0 -7 0 -10 1l-47 -133h-31l48 136c-55 10 -108 48 -108 154
c0 135 126 280 265 293l42 120h30zM202 41l132 376c-112 -23 -171 -181 -171 -270c0 -51 13 -87 39 -106z" />
    <glyph glyph-name="sterling" unicode="&#xa3;" 
d="M396 319h-126c-25 -103 -28 -118 -73 -215c31 -12 103 -38 156 -38c44 0 64 14 83 27l10 7l11 -9c-2 -7 -36 -97 -140 -97c-31 0 -71 2 -146 63c-22 -27 -50 -63 -94 -63c-39 0 -67 20 -67 70c0 18 23 62 89 62c21 0 21 0 61 -11l25 204h-113l9 42h110
c9 73 65 309 235 309c59 0 91 -37 91 -75c0 -34 -20 -42 -39 -42c-25 0 -33 14 -36 44c-4 31 -16 44 -39 44c-41 0 -57 -33 -67 -55c-24 -55 -38 -127 -56 -225h123zM32 53c0 -16 12 -37 46 -37c24 0 60 26 68 57c-21 15 -35 25 -61 25c-50 0 -53 -40 -53 -45z" />
    <glyph glyph-name="fraction" unicode="&#x2044;" horiz-adv-x="167" 
d="M337 676l-455 -686h-51l455 686h51z" />
    <glyph glyph-name="yen" unicode="&#xa5;" 
d="M456 182h-180c-14 -44 -31 -97 -31 -123c0 -37 19 -38 92 -43v-16h-285l4 16c43 4 86 8 109 74l27 92h-165l12 40h164l23 80l-3 10h-163l12 40h140l-63 219c-16 57 -28 58 -88 66v16h239v-16c-49 -4 -75 -6 -75 -38c0 -27 43 -160 68 -252c47 56 190 214 190 256
c0 27 -18 29 -69 34v16h189v-16c-30 -13 -41 -21 -73 -61l-181 -224h151l-12 -40h-170l-6 -8l-24 -82h180z" />
    <glyph glyph-name="florin" unicode="&#x192;" 
d="M450 412l-7 -30h-122l-42 -303c-5 -39 -42 -261 -174 -261c-55 0 -80 34 -80 64c0 49 39 51 45 51c24 0 39 -21 39 -38c0 -16 -14 -26 -14 -38s13 -16 19 -16c60 0 71 82 84 198l39 343h-112l7 30h109c20 140 76 270 186 270c30 0 80 -18 80 -69c0 -26 -15 -47 -41 -47
c-17 0 -40 14 -40 39c0 15 13 24 13 35c0 6 -7 13 -19 13c-65 0 -76 -81 -96 -241h126z" />
    <glyph glyph-name="section" unicode="&#xa7;" 
d="M271 490l123 -150c14 -17 41 -57 41 -115c0 -70 -46 -125 -114 -125c-21 0 -26 2 -37 7l-2 -3c42 -54 63 -80 63 -131c0 -84 -79 -135 -153 -135c-92 0 -139 58 -139 105c0 11 0 59 57 59c22 0 46 -10 46 -44c0 -47 -42 -41 -42 -63c0 -17 32 -36 68 -36
c68 0 105 40 105 89c0 28 -7 49 -50 98l-76 87c-46 53 -71 106 -71 149c0 78 52 127 106 127c5 0 32 -1 53 -11l2 3c-43 51 -67 94 -67 139c0 84 73 126 147 126c83 0 130 -46 130 -99c0 -21 -9 -55 -52 -55c-33 0 -46 26 -46 44c0 35 34 40 34 58c0 16 -24 31 -57 31
c-48 0 -95 -21 -95 -84c0 -28 11 -52 26 -71zM147 322c0 -70 107 -201 164 -201c22 0 66 19 66 70c0 26 -5 55 -57 121c-51 65 -78 75 -108 76c-30 -1 -65 -24 -65 -66z" />
    <glyph glyph-name="currency" unicode="&#xa4;" 
d="M251 476c-84 0 -148 -70 -148 -150c0 -82 64 -152 148 -152s146 70 146 152c0 80 -62 150 -146 150zM-22 103l98 96c-25 33 -41 77 -41 127s18 96 41 125l-98 98l50 48l96 -96c33 23 77 39 127 39s96 -16 125 -39l98 96l48 -48l-96 -98c23 -31 39 -75 39 -125
s-16 -94 -39 -127l96 -96l-48 -50l-98 98c-29 -23 -75 -41 -125 -41s-96 18 -127 41l-96 -98z" />
    <glyph glyph-name="quotesingle" unicode="'" horiz-adv-x="214" 
d="M153 421h-21c5 55 14 172 23 204c7 25 33 41 53 41c22 0 33 -14 33 -31s-47 -126 -88 -214z" />
    <glyph glyph-name="quotedblleft" unicode="&#x201c;" horiz-adv-x="556" 
d="M296 666l9 -17c-20 -13 -75 -50 -75 -87c0 -34 45 -35 45 -79c0 -42 -42 -47 -50 -47c-34 0 -59 29 -59 72c0 67 73 130 130 158zM505 666l9 -17c-20 -13 -75 -50 -75 -87c0 -34 45 -35 45 -79c0 -42 -42 -47 -50 -47c-34 0 -59 29 -59 72c0 67 73 130 130 158z" />
    <glyph glyph-name="guillemotleft" unicode="&#xab;" 
d="M53 216v9c29 23 81 61 112 88c32 28 101 90 110 90c6 0 8 -3 8 -8c0 -17 -30 -48 -156 -178c31 -61 82 -161 82 -172c0 -2 0 -8 -8 -8c-13 0 -66 78 -81 95c-16 18 -60 72 -67 84zM215 216v9c29 23 81 61 112 88c32 28 101 90 110 90c6 0 8 -3 8 -8
c0 -17 -30 -48 -156 -178c31 -61 82 -161 82 -172c0 -2 0 -8 -8 -8c-13 0 -66 78 -81 95c-16 18 -60 72 -67 84z" />
    <glyph glyph-name="guilsinglleft" unicode="&#x2039;" horiz-adv-x="333" 
d="M51 216v9c29 23 81 61 112 88c32 28 101 90 110 90c6 0 8 -3 8 -8c0 -17 -30 -48 -156 -178c31 -61 82 -161 82 -172c0 -2 0 -8 -8 -8c-13 0 -66 78 -81 95c-16 18 -60 72 -67 84z" />
    <glyph glyph-name="guilsinglright" unicode="&#x203a;" horiz-adv-x="333" 
d="M282 224v-9c-29 -23 -81 -61 -112 -88c-32 -28 -101 -90 -110 -90c-6 0 -8 3 -8 8c0 17 30 48 156 178c-31 61 -82 161 -82 172c0 2 0 8 8 8c13 0 66 -78 81 -95c16 -18 60 -72 67 -84z" />
    <glyph glyph-name="endash" unicode="&#x2013;" 
d="M505 243l-8 -46h-503l8 46h503z" />
    <glyph glyph-name="dagger" unicode="&#x2020;" 
d="M179 -159h-22c37 187 54 273 54 358c0 16 -5 51 -5 63c38 40 62 94 74 164h-7c-36 0 -59 -7 -77 -15c-19 -8 -33 -16 -50 -16c-27 0 -45 13 -45 43c0 27 17 39 46 39c25 0 38 -7 55 -15c18 -7 40 -15 83 -15c7 37 10 65 10 84c0 35 -9 49 -9 79c0 33 13 56 49 56
c23 0 40 -15 40 -44c0 -55 -49 -65 -71 -175c44 0 66 8 83 15c17 8 30 15 55 15c29 0 46 -12 46 -39c0 -30 -18 -43 -45 -43c-33 0 -53 31 -138 31h-4c-6 -29 -9 -47 -9 -82v-13c0 -47 14 -69 16 -73c-30 -44 -69 -153 -81 -207z" />
    <glyph glyph-name="daggerdbl" unicode="&#x2021;" 
d="M282 427h-18c-48 0 -76 -31 -115 -31c-21 0 -48 12 -48 42c0 22 17 40 44 40c47 0 59 -30 141 -30c5 26 9 47 9 76c0 38 -9 72 -9 86c0 29 19 56 48 56c15 0 41 -10 41 -44c0 -56 -56 -75 -69 -174c82 0 94 30 141 30c27 0 44 -18 44 -40c0 -30 -27 -42 -48 -42
c-39 0 -67 31 -115 31h-26c-5 -21 -11 -60 -11 -89c0 -24 8 -50 16 -79c-47 -43 -65 -114 -76 -163h19c48 0 76 31 115 31c21 0 48 -12 48 -42c0 -22 -17 -40 -44 -40c-47 0 -59 30 -141 30c-6 -26 -10 -47 -10 -76c0 -38 9 -72 9 -86c0 -29 -19 -56 -48 -56
c-15 0 -41 10 -41 44c0 58 56 75 69 174c-82 0 -94 -30 -141 -30c-27 0 -44 18 -44 40c0 30 27 42 48 42c39 0 67 -31 115 -31h26c5 21 11 60 11 89c0 24 -8 50 -16 79c47 43 65 114 76 163z" />
    <glyph glyph-name="periodcentered" unicode="&#xb7;" horiz-adv-x="250" 
d="M125 199c-21 0 -55 16 -55 54c0 32 25 57 55 57s56 -26 56 -57c0 -37 -35 -54 -56 -54z" />
    <glyph glyph-name="paragraph" unicode="&#xb6;" horiz-adv-x="523" 
d="M616 653l-6 -21c-72 -5 -84 -9 -97 -58l-156 -585c-4 -16 -15 -43 -15 -66c0 -19 32 -21 72 -25l-5 -21h-148l200 755h-58l-200 -755h-148l5 21c42 4 77 6 86 25c8 16 86 315 99 360c-109 0 -153 55 -153 120c0 52 19 127 59 174c41 48 93 76 208 76h257zM255 304l79 328
c-40 0 -82 -21 -111 -61c-35 -44 -54 -120 -54 -164c0 -45 23 -103 86 -103z" />
    <glyph glyph-name="bullet" unicode="&#x2022;" horiz-adv-x="350" 
d="M310 326c0 -74 -60 -135 -135 -135s-135 60 -135 135v2c0 74 60 133 135 133s135 -60 135 -135z" />
    <glyph glyph-name="quotesinglbase" unicode="&#x201a;" horiz-adv-x="333" 
d="M53 -129l-9 17c20 13 75 50 75 87c0 34 -45 35 -45 79c0 42 42 47 50 47c34 0 59 -29 59 -72c0 -67 -73 -130 -130 -158z" />
    <glyph glyph-name="quotedblbase" unicode="&#x201e;" horiz-adv-x="556" 
d="M66 -129l-9 17c20 13 75 50 75 87c0 34 -45 35 -45 79c0 42 42 47 50 47c34 0 59 -29 59 -72c0 -67 -73 -130 -130 -158zM275 -129l-9 17c20 13 75 50 75 87c0 34 -45 35 -45 79c0 42 42 47 50 47c34 0 59 -29 59 -72c0 -67 -73 -130 -130 -158z" />
    <glyph glyph-name="quotedblright" unicode="&#x201d;" horiz-adv-x="556" 
d="M160 436l-9 17c20 13 75 50 75 87c0 34 -45 35 -45 79c0 42 42 47 50 47c34 0 59 -29 59 -72c0 -67 -73 -130 -130 -158zM369 436l-9 17c20 13 75 50 75 87c0 34 -45 35 -45 79c0 42 42 47 50 47c34 0 59 -29 59 -72c0 -67 -73 -130 -130 -158z" />
    <glyph glyph-name="guillemotright" unicode="&#xbb;" 
d="M447 224v-9c-29 -23 -81 -61 -112 -88c-32 -28 -101 -90 -110 -90c-6 0 -8 3 -8 8c0 17 30 48 156 178c-31 61 -82 161 -82 172c0 2 0 8 8 8c13 0 66 -78 81 -95c16 -18 60 -72 67 -84zM285 224v-9c-29 -23 -81 -61 -112 -88c-32 -28 -101 -90 -110 -90c-6 0 -8 3 -8 8
c0 17 30 48 156 178c-31 61 -82 161 -82 172c0 2 0 8 8 8c13 0 66 -78 81 -95c16 -18 60 -72 67 -84z" />
    <glyph glyph-name="ellipsis" unicode="&#x2026;" horiz-adv-x="889" 
d="M112 -11c-21 0 -55 16 -55 54c0 32 25 57 55 57s56 -26 56 -57c0 -37 -35 -54 -56 -54zM409 -11c-21 0 -55 16 -55 54c0 32 25 57 55 57s56 -26 56 -57c0 -37 -35 -54 -56 -54zM706 -11c-21 0 -55 16 -55 54c0 32 25 57 55 57s56 -26 56 -57c0 -37 -35 -54 -56 -54z" />
    <glyph glyph-name="perthousand" unicode="&#x2030;" horiz-adv-x="1000" 
d="M586 706l-431 -724h-46l386 647l-2 2c-15 -18 -45 -48 -123 -48c-14 0 -21 0 -64 14c2 -10 4 -18 4 -34c0 -118 -72 -237 -166 -237c-59 0 -119 48 -119 144c0 90 82 206 192 206c68 0 60 -67 163 -67c63 0 85 22 162 97h44zM96 431c0 -41 14 -78 60 -78
c76 0 130 117 130 199c0 52 -3 54 -35 69c-16 7 -30 29 -39 29s-45 -26 -71 -69c-31 -52 -45 -122 -45 -150zM366 119c0 117 100 211 188 211c24 0 96 -7 96 -113c0 -140 -85 -236 -163 -236c-42 0 -121 33 -121 138zM566 302c-77 0 -128 -153 -128 -219
c0 -48 21 -75 54 -75c93 0 135 142 135 201c0 64 -30 93 -61 93zM726 119c0 117 100 211 188 211c24 0 96 -7 96 -113c0 -140 -85 -236 -163 -236c-42 0 -121 33 -121 138zM926 302c-77 0 -128 -153 -128 -219c0 -48 21 -75 54 -75c93 0 135 142 135 201c0 64 -30 93 -61 93
z" />
    <glyph glyph-name="questiondown" unicode="&#xbf;" 
d="M284 285l17 -2c-16 -194 -199 -235 -199 -382c0 -25 7 -84 80 -84c5 0 70 0 70 47c0 24 -15 31 -15 53c0 30 30 35 40 35c24 0 39 -18 39 -47c0 -71 -66 -110 -137 -110c-96 0 -151 53 -151 127c0 70 33 101 134 183c43 35 98 79 115 151zM262 418c0 20 16 53 52 53
c31 0 54 -22 54 -51s-23 -52 -53 -52c-37 0 -53 33 -53 50z" />
    <glyph glyph-name="grave" unicode="`" horiz-adv-x="333" 
d="M280 492l-140 106c-5 4 -19 14 -19 31c0 20 14 35 36 35c7 0 20 0 38 -23l116 -149h-31z" />
    <glyph glyph-name="acute" unicode="&#xb4;" horiz-adv-x="333" 
d="M386 600l-171 -106h-35l162 160c6 6 14 10 25 10c21 0 36 -17 36 -35c0 -15 -6 -22 -17 -29z" />
    <glyph glyph-name="circumflex" unicode="&#x2c6;" horiz-adv-x="333" 
d="M297 661l88 -169h-36l-82 104l-137 -104h-39l157 169h49z" />
    <glyph glyph-name="tilde" unicode="&#x2dc;" horiz-adv-x="333" 
d="M399 624h28c-11 -67 -51 -104 -96 -104c-17 0 -45 11 -73 22c-29 11 -58 22 -77 22c-28 0 -45 -19 -52 -47h-29c10 38 27 106 101 106c54 0 107 -43 145 -43s46 23 53 44z" />
    <glyph glyph-name="macron" unicode="&#xaf;" horiz-adv-x="333" 
d="M411 583l-11 -51h-301l11 51h301z" />
    <glyph glyph-name="breve" unicode="&#x2d8;" horiz-adv-x="333" 
d="M389 650h29c-14 -87 -82 -158 -168 -158c-133 0 -133 116 -133 158h29c0 -16 10 -99 109 -99s133 95 134 99z" />
    <glyph glyph-name="dotaccent" unicode="&#x2d9;" horiz-adv-x="333" 
d="M257 646c17 0 48 -16 48 -49c0 -27 -22 -49 -49 -49s-49 21 -49 50c0 33 30 48 50 48z" />
    <glyph glyph-name="dieresis" unicode="&#xa8;" horiz-adv-x="333" 
d="M157 646c17 0 48 -16 48 -49c0 -27 -22 -49 -49 -49s-49 21 -49 50c0 33 30 48 50 48zM357 646c17 0 48 -16 48 -49c0 -27 -22 -49 -49 -49s-49 21 -49 50c0 33 30 48 50 48z" />
    <glyph glyph-name="ring" unicode="&#x2da;" horiz-adv-x="333" 
d="M155 591c0 54 42 100 100 100c54 0 100 -45 100 -100s-46 -99 -100 -99c-57 0 -100 45 -100 99zM189 591c0 -25 19 -65 65 -65c38 0 67 28 67 65c0 36 -29 66 -67 66c-45 0 -65 -41 -65 -66z" />
    <glyph glyph-name="cedilla" unicode="&#xb8;" horiz-adv-x="333" 
d="M21 -96l60 96h38l-44 -66c9 2 15 3 27 3c44 0 80 -24 80 -67c0 -68 -73 -87 -122 -87c-24 0 -58 8 -90 21l17 29c18 -7 41 -15 66 -15c55 0 55 32 55 44c0 24 -22 41 -46 41c-11 0 -22 -3 -32 -7z" />
    <glyph glyph-name="hungarumlaut" unicode="&#x2dd;" horiz-adv-x="333" 
d="M299 600l-171 -106h-35l162 160c6 6 14 10 25 10c21 0 36 -17 36 -35c0 -15 -6 -22 -17 -29zM469 600l-171 -106h-35l162 160c6 6 14 10 25 10c21 0 36 -17 36 -35c0 -15 -6 -22 -17 -29z" />
    <glyph glyph-name="ogonek" unicode="&#x2db;" horiz-adv-x="333" 
d="M98 40h29c-26 -38 -45 -73 -45 -113c0 -39 14 -48 33 -48c23 0 45 21 66 51l22 -17c-22 -34 -69 -82 -124 -82c-42 0 -59 31 -59 73c0 41 49 110 78 136z" />
    <glyph glyph-name="caron" unicode="&#x2c7;" horiz-adv-x="333" 
d="M426 661l-163 -169h-46l-96 169h37l90 -105l142 105h36z" />
    <glyph glyph-name="emdash" unicode="&#x2014;" horiz-adv-x="889" 
d="M894 243l-8 -46h-892l8 46h892z" />
    <glyph glyph-name="AE" unicode="&#xc6;" horiz-adv-x="889" 
d="M826 169l18 -5l-64 -164h-498v16c55 6 68 8 80 48l49 170h-190c-31 -37 -125 -154 -125 -184c0 -22 11 -29 64 -34v-16h-187v16c24 6 37 17 84 76l369 465c15 18 32 37 32 51c0 25 -14 26 -64 30v15h517l-33 -153l-17 2c1 12 1 23 1 33c0 69 -21 85 -177 85
c-60 0 -69 0 -79 -37l-61 -222c157 2 168 4 211 97l18 -4l-69 -232l-17 4c3 16 6 33 6 49c0 46 -22 53 -118 53h-40c-21 -75 -71 -247 -71 -265c0 -20 13 -30 51 -30h30c141 0 207 25 280 136zM249 271h173l92 330h-6z" />
    <glyph glyph-name="ordfeminine" unicode="&#xaa;" horiz-adv-x="276" 
d="M299 673l40 3l13 -1c-2 -7 -49 -173 -54 -203c-2 -9 -4 -18 -4 -23c0 -4 1 -6 3 -6c7 0 20 11 46 39l7 -10c-39 -44 -61 -66 -89 -66c-27 0 -32 16 -32 26c0 14 3 27 14 54l-2 1c-44 -63 -77 -81 -122 -81c-70 0 -77 53 -77 71c0 88 100 199 186 199c38 0 59 -15 61 -31
h2l6 26zM269 619c0 28 -12 39 -18 39c-71 0 -136 -123 -136 -173c0 -35 20 -45 28 -45c65 0 126 130 126 179z" />
    <glyph glyph-name="Lslash" unicode="&#x141;" horiz-adv-x="556" 
d="M539 185l20 -6l-58 -179h-509v16c49 9 64 12 81 74l50 180l-99 -59l13 48l99 59l60 214c6 20 11 44 11 62c0 34 -27 39 -77 43v16h273v-16c-35 -3 -87 -8 -105 -88l-49 -175l143 85l-14 -49l-142 -83c-31 -115 -68 -236 -68 -256c0 -32 41 -35 103 -35
c121 0 202 3 268 149z" />
    <glyph glyph-name="Oslash" unicode="&#xd8;" horiz-adv-x="722" 
d="M190 74l356 533c-19 16 -47 26 -83 26c-198 0 -298 -322 -298 -452c0 -13 0 -64 25 -107zM570 574l-355 -530c17 -17 43 -29 81 -29c203 0 298 335 298 453c0 41 -6 78 -24 106zM669 722l-64 -96c56 -39 94 -105 94 -203c0 -201 -196 -441 -420 -441c-28 0 -62 8 -92 21
l-74 -108h-44l86 127c-53 35 -95 99 -95 205c0 221 228 439 407 439c37 0 73 -7 106 -22l52 78h44z" />
    <glyph glyph-name="OE" unicode="&#x152;" horiz-adv-x="944" 
d="M964 653l-31 -150h-16c0 83 0 117 -120 117h-96c-27 0 -33 -17 -37 -32l-64 -227h28c138 0 145 16 182 95l18 -4l-66 -230l-20 2c6 37 2 16 6 42c0 45 -18 58 -95 59l-62 3l-52 -190c-5 -20 -15 -54 -15 -68c0 -35 26 -37 95 -37c163 0 216 73 264 139l16 -6l-65 -166
h-346c-40 0 -75 -2 -110 -4c-34 -2 -69 -4 -108 -4c-120 0 -221 100 -221 228c0 244 191 446 393 446c24 0 54 -3 83 -6c28 -4 54 -7 70 -7h369zM458 199l73 268c8 27 20 68 20 85c0 51 -42 82 -105 82c-174 0 -289 -250 -289 -427c0 -43 1 -183 140 -183
c106 0 131 64 161 175z" />
    <glyph glyph-name="ordmasculine" unicode="&#xba;" horiz-adv-x="310" 
d="M262 676c77 0 100 -48 100 -88c0 -74 -89 -182 -193 -182c-71 0 -102 36 -102 86c0 88 96 184 195 184zM178 430c69 0 111 121 111 172c0 27 -5 52 -32 52c-67 0 -117 -114 -117 -172c0 -30 10 -52 38 -52z" />
    <glyph glyph-name="ae" unicode="&#xe6;" horiz-adv-x="667" 
d="M588 113l10 -12c-6 -10 -96 -112 -192 -112c-78 0 -110 62 -110 128c0 9 1 15 3 23h-5c-49 -72 -108 -151 -184 -151c-72 0 -87 59 -87 106c0 132 151 346 277 346c48 0 58 -23 69 -47l19 43l71 2l-20 -56l2 -2c38 39 79 60 118 60c22 0 81 -8 81 -68
c0 -102 -138 -141 -256 -175c-5 -22 -8 -34 -8 -58c0 -29 0 -104 73 -104c21 0 72 10 139 77zM109 104c0 -34 2 -65 36 -65c98 0 205 224 205 324c0 55 -34 58 -48 58c-94 0 -193 -219 -193 -317zM574 379c0 32 -20 37 -36 37c-48 0 -106 -56 -148 -193
c136 28 184 103 184 156z" />
    <glyph glyph-name="dotlessi" unicode="&#x131;" horiz-adv-x="278" 
d="M222 114l13 -11c-39 -59 -83 -114 -139 -114c-47 0 -47 44 -47 62c0 47 79 295 79 323c0 21 -8 26 -63 26v16c38 2 121 18 160 25l3 -2l-88 -322c-4 -14 -16 -54 -16 -66c0 -7 7 -15 16 -15c12 0 41 20 82 78z" />
    <glyph glyph-name="lslash" unicode="&#x142;" horiz-adv-x="278" 
d="M118 640v16c52 6 104 15 156 27l5 -5l-65 -250l98 50l-12 -46l-98 -50l-74 -283c-2 -9 -10 -36 -10 -47c0 -6 0 -20 15 -20c25 0 46 28 95 91l13 -9c-51 -77 -90 -125 -152 -125c-44 0 -48 34 -48 62c0 10 32 133 73 281l-72 -36l12 46l72 36c29 109 60 227 60 237
c0 22 -29 25 -54 25h-14z" />
    <glyph glyph-name="oslash" unicode="&#xf8;" 
d="M140 29l188 389c-3 2 -7 2 -12 2c-114 0 -204 -201 -204 -317c0 -32 9 -57 28 -74zM357 406l-190 -392c7 -3 16 -4 25 -4c116 0 193 210 193 311c0 23 -4 63 -28 85zM428 554l-58 -119c71 -17 99 -76 99 -144c0 -119 -137 -302 -290 -302c-8 0 -16 0 -23 2l-61 -126h-35
l64 131c-74 20 -96 83 -96 139c0 140 146 306 294 306c6 0 11 0 17 -1l55 114h34z" />
    <glyph glyph-name="oe" unicode="&#x153;" horiz-adv-x="667" 
d="M593 105l11 -11c-37 -38 -112 -106 -197 -106c-45 0 -85 27 -104 68c-35 -34 -70 -67 -144 -67c-55 0 -139 40 -139 151c0 138 149 301 271 301c89 0 113 -72 115 -80c79 75 123 80 165 80c75 0 75 -63 75 -70c0 -27 -19 -70 -63 -102c-90 -65 -188 -64 -196 -76
c-9 -14 -14 -60 -14 -81c0 -68 55 -82 73 -82c50 0 90 31 147 75zM172 9c122 0 171 301 171 338c0 29 -7 71 -63 71c-91 0 -177 -195 -177 -308c0 -26 0 -101 69 -101zM392 215c71 22 92 29 125 54c55 43 63 90 63 107c0 23 -11 40 -34 40c-54 0 -124 -85 -154 -201z" />
    <glyph glyph-name="germandbls" unicode="&#xdf;" 
d="M206 438l-111 -426c-11 -43 -63 -219 -185 -219c-42 0 -78 22 -78 60c0 33 18 44 41 44c31 0 38 -27 38 -36c0 -15 -12 -30 -12 -35s4 -9 18 -9c63 0 84 84 106 179l72 319c51 224 118 364 260 364c99 0 138 -70 138 -130c0 -104 -101 -142 -155 -162l-8 -3v-3
c79 -6 124 -65 124 -146c0 -75 -67 -248 -215 -248c-31 0 -78 16 -78 67c0 30 20 46 44 46c26 0 38 -19 38 -40c0 -22 -12 -28 -12 -38c0 -4 5 -13 18 -13c81 0 118 171 118 246c0 157 -107 93 -107 128c0 26 20 2 73 28c64 32 80 108 80 170c0 48 -23 75 -64 75
c-86 0 -132 -176 -143 -218z" />
    <glyph glyph-name="logicalnot" unicode="&#xac;" horiz-adv-x="675" 
d="M524 108v212h-438v66h504v-278h-66z" />
    <glyph glyph-name="mu" unicode="&#xb5;" horiz-adv-x="514" 
d="M479 108l-5 -13c-32 -91 -87 -106 -124 -106c-44 0 -55 36 -55 74c0 25 8 67 12 83l-1 -4v1s1 5 6 23h-1c-65 -113 -121 -177 -201 -177c-26 0 -50 20 -57 52c-7 -22 -26 -136 -26 -172c0 -50 -8 -77 -39 -77c-20 0 -31 13 -31 39c0 20 39 98 84 258l2 8c0 1 0 3 1 5
l90 326h76l-78 -289c-4 -14 -11 -39 -11 -61c0 -23 7 -42 33 -42c57 0 112 96 141 151c29 56 50 121 58 147c0 0 17 59 30 94h74l-80 -295c-4 -14 -11 -52 -11 -67v-3c0 -12 1 -29 19 -29c16 0 45 12 74 71c1 3 4 9 4 9z" />
    <glyph glyph-name="trademark" unicode="&#x2122;" horiz-adv-x="980" 
d="M238 633v-320c0 -38 2 -38 50 -44v-20h-171v20c48 6 50 6 50 44v320h-49c-42 0 -59 -31 -68 -68h-20v88h345v-88h-20c-9 37 -26 68 -67 68h-50zM665 247l-149 306h-2v-219c0 -44 8 -61 53 -65v-20h-131v20c44 4 52 21 52 65v249c-12 30 -40 50 -69 50v20h121l154 -309
l160 309h103v-20c-44 -2 -56 -20 -56 -55v-265c0 -38 2 -38 50 -44v-20h-170v20c47 5 49 6 49 41v245h-2l-152 -308h-11z" />
    <glyph glyph-name="Eth" unicode="&#xd0;" horiz-adv-x="722" 
d="M48 326l12 42h90l46 164c3 11 11 42 11 62c0 34 -26 39 -77 43v16h278c230 0 292 -161 292 -266c0 -202 -161 -387 -455 -387h-253v16c49 9 64 12 81 74l65 236h-90zM403 368l-12 -42h-153l-46 -164c-9 -33 -22 -77 -22 -93c0 -33 24 -39 71 -39c315 0 348 308 348 369
c0 101 -34 224 -211 224c-57 0 -61 -15 -65 -29l-63 -226h153z" />
    <glyph glyph-name="onehalf" unicode="&#xbd;" horiz-adv-x="750" 
d="M635 676l-455 -686h-51l455 686h51zM215 287v-16h-181v16c34 4 59 6 65 25l90 285c2 6 5 15 5 20c0 19 -16 19 -18 19l-37 -1v19c30 4 121 22 130 22c4 0 5 -2 5 -5c0 -4 -1 -9 -3 -16l-86 -274c-13 -42 -19 -64 -19 -73c0 -19 20 -21 49 -21zM711 87l11 -8l-33 -79h-231
v18l133 130c91 90 93 125 93 140c0 30 -29 66 -76 66c-58 0 -83 -42 -92 -53l-13 8c35 94 120 97 138 97c69 0 105 -56 108 -97c0 -40 -16 -67 -99 -141l-114 -110l2 -5h108c43 0 53 13 65 34z" />
    <glyph glyph-name="plusminus" unicode="&#xb1;" horiz-adv-x="675" 
d="M86 0v66h504v-66h-504zM305 348v158h66v-158h219v-66h-219v-160h-66v160h-219v66h219z" />
    <glyph glyph-name="Thorn" unicode="&#xde;" horiz-adv-x="611" 
d="M146 637v16h238v-16c-32 -5 -50 -7 -62 -42l-20 -77h56c44 0 211 -1 211 -152c0 -74 -57 -196 -257 -196c-70 0 -84 3 -106 10l-17 -60c-12 -44 -12 -44 -12 -61c0 -34 16 -36 68 -43v-16h-245v16c51 8 64 10 82 74l118 425c7 23 17 63 17 77c0 37 -29 40 -71 45z
M286 459l-71 -248c20 -3 32 -5 45 -5c73 0 206 0 206 165c0 74 -30 117 -140 117c-30 0 -36 -17 -40 -29z" />
    <glyph glyph-name="onequarter" unicode="&#xbc;" horiz-adv-x="750" 
d="M648 328l-184 -181h129l58 180l-1 -1zM712 147l-9 -43h-58l-30 -104h-63l32 105h-168l13 42l271 259h36l-79 -259h55zM649 676l-455 -686h-51l455 686h51zM214 287v-16h-181v16c34 4 59 6 65 25l90 285c2 6 5 15 5 20c0 19 -16 19 -18 19l-37 -1v19c30 4 121 22 130 22
c4 0 5 -2 5 -5c0 -4 -1 -9 -3 -16l-86 -274c-13 -42 -19 -64 -19 -73c0 -19 20 -21 49 -21z" />
    <glyph glyph-name="divide" unicode="&#xf7;" horiz-adv-x="675" 
d="M590 220h-504v66h504v-66zM338 -11c-21 0 -55 16 -55 54c0 32 25 57 55 57s56 -26 56 -57c0 -37 -35 -54 -56 -54zM338 406c-21 0 -55 16 -55 54c0 32 25 57 55 57s56 -26 56 -57c0 -37 -35 -54 -56 -54z" />
    <glyph glyph-name="brokenbar" unicode="&#xa6;" horiz-adv-x="275" 
d="M105 708h66v-350h-66v350zM105 208h66v-350h-66v350z" />
    <glyph glyph-name="degree" unicode="&#xb0;" horiz-adv-x="400" 
d="M244 424c58 0 104 51 104 109s-46 109 -104 109s-104 -51 -104 -109s46 -109 104 -109zM244 390c-80 0 -143 63 -143 143s63 143 143 143s143 -63 143 -143s-63 -143 -143 -143z" />
    <glyph glyph-name="thorn" unicode="&#xfe;" 
d="M379 313c0 27 -1 85 -66 85c-47 0 -105 -46 -131 -114c-25 -64 -65 -200 -65 -239c0 -26 25 -37 50 -37c122 0 212 186 212 305zM130 -190v-15h-205v16c53 0 59 27 67 59c21 86 148 560 180 677c7 28 16 53 16 67c0 23 -7 28 -65 29v17c50 6 101 13 152 23l5 -5
c-3 -12 -85 -326 -91 -343l2 -2c20 35 77 108 159 108c89 0 119 -59 119 -131c0 -155 -160 -321 -298 -321c-25 0 -45 5 -68 17c-9 -34 -37 -144 -37 -164c0 -32 38 -32 64 -32z" />
    <glyph glyph-name="threequarters" unicode="&#xbe;" horiz-adv-x="750" 
d="M648 328l-184 -181h129l58 180l-1 -1zM712 147l-9 -42h-58l-30 -105h-63l32 105h-168l13 42l271 259h36l-79 -259h55zM650 676l-455 -686h-51l455 686h51zM129 608l-10 7c16 36 65 61 102 61c48 0 95 -24 98 -73c0 -46 -33 -67 -101 -90l4 -2c16 -7 59 -24 59 -85v-6
c0 -67 -59 -152 -183 -152c-39 0 -75 8 -75 39c0 13 7 24 28 28c30 0 51 -36 84 -36c22 0 83 20 83 88c0 78 -49 102 -101 102h-12v9c57 9 147 35 147 93c0 40 -31 53 -49 53c-41 0 -64 -27 -74 -36z" />
    <glyph glyph-name="registered" unicode="&#xae;" horiz-adv-x="760" 
d="M221 496v15h175c59 0 114 -28 114 -90c0 -51 -34 -89 -79 -104l57 -78c26 -36 56 -70 75 -84v-9h-63c-32 0 -57 68 -120 161h-47v-107c0 -34 2 -34 48 -39v-15h-160v15c47 5 48 5 48 43v249c0 39 -1 38 -48 43zM333 492v-167h42c49 0 68 38 68 91c0 57 -31 76 -69 76h-41
zM719 323c0 -189 -147 -341 -337 -341c-192 0 -341 152 -341 341s149 343 341 343c190 0 337 -154 337 -343zM664 323c0 160 -124 301 -282 301c-161 0 -286 -142 -286 -301s126 -299 286 -299c157 0 282 140 282 299z" />
    <glyph glyph-name="minus" unicode="&#x2212;" horiz-adv-x="675" 
d="M590 220h-504v66h504v-66z" />
    <glyph glyph-name="eth" unicode="&#xf0;" 
d="M314 420c-112 0 -203 -199 -203 -317c0 -57 30 -93 80 -93c114 0 193 207 193 314c0 52 -22 96 -70 96zM324 567l-117 -51l-33 29l123 54c-32 31 -67 53 -103 67l35 17c40 -8 83 -28 122 -61l99 43l32 -28l-101 -45c50 -54 85 -131 86 -228v-2
c0 -199 -137 -373 -289 -373c-106 0 -151 61 -151 144c0 147 148 308 283 308c37 0 70 -19 84 -49l2 1c-9 70 -36 129 -72 174z" />
    <glyph glyph-name="multiply" unicode="&#xd7;" horiz-adv-x="675" 
d="M289 253l-196 196l48 48l196 -197l197 197l48 -48l-197 -196l197 -197l-48 -48l-197 197l-196 -197l-48 48z" />
    <glyph glyph-name="copyright" unicode="&#xa9;" horiz-adv-x="760" 
d="M719 323c0 -189 -147 -341 -337 -341c-192 0 -341 152 -341 341s149 343 341 343c190 0 337 -154 337 -343zM664 323c0 160 -124 301 -282 301c-161 0 -286 -142 -286 -301s126 -299 286 -299c157 0 282 140 282 299zM529 240h16l-15 -68c-1 -12 -10 -15 -26 -19
c-19 -7 -58 -17 -104 -17c-114 0 -209 56 -209 196c0 82 66 191 216 191c50 0 75 -10 101 -18c16 -5 21 -13 21 -21v-69h-16c-5 42 -32 88 -109 88c-93 0 -135 -71 -136 -167v-4c0 -102 41 -176 141 -176c66 0 101 39 120 84z" />
    <glyph glyph-name="Aacute" unicode="&#xc1;" horiz-adv-x="611" 
d="M368 668h26l94 -566c12 -70 18 -81 76 -86v-16h-246v16c52 4 78 10 78 50c0 1 0 15 -2 29l-20 131h-220l-57 -113c-14 -27 -20 -40 -20 -62c0 -26 13 -31 59 -35v-16h-187v16c38 9 47 12 129 152zM175 262h194l-44 259h-1zM525 812l-171 -106h-35l162 160
c6 6 14 10 25 10c21 0 36 -17 36 -35c0 -15 -6 -22 -17 -29z" />
    <glyph glyph-name="Acircumflex" unicode="&#xc2;" horiz-adv-x="611" 
d="M368 668h26l94 -566c12 -70 18 -81 76 -86v-16h-246v16c52 4 78 10 78 50c0 1 0 15 -2 29l-20 131h-220l-57 -113c-14 -27 -20 -40 -20 -62c0 -26 13 -31 59 -35v-16h-187v16c38 9 47 12 129 152zM175 262h194l-44 259h-1zM441 873l88 -169h-36l-82 104l-137 -104h-39
l157 169h49z" />
    <glyph glyph-name="Adieresis" unicode="&#xc4;" horiz-adv-x="611" 
d="M368 668h26l94 -566c12 -70 18 -81 76 -86v-16h-246v16c52 4 78 10 78 50c0 1 0 15 -2 29l-20 131h-220l-57 -113c-14 -27 -20 -40 -20 -62c0 -26 13 -31 59 -35v-16h-187v16c38 9 47 12 129 152zM175 262h194l-44 259h-1zM296 818c17 0 48 -16 48 -49
c0 -27 -22 -49 -49 -49s-49 21 -49 50c0 33 30 48 50 48zM496 818c17 0 48 -16 48 -49c0 -27 -22 -49 -49 -49s-49 21 -49 50c0 33 30 48 50 48z" />
    <glyph glyph-name="Agrave" unicode="&#xc0;" horiz-adv-x="611" 
d="M368 668h26l94 -566c12 -70 18 -81 76 -86v-16h-246v16c52 4 78 10 78 50c0 1 0 15 -2 29l-20 131h-220l-57 -113c-14 -27 -20 -40 -20 -62c0 -26 13 -31 59 -35v-16h-187v16c38 9 47 12 129 152zM175 262h194l-44 259h-1zM429 704l-140 106c-5 4 -19 14 -19 31
c0 20 14 35 36 35c7 0 20 0 38 -23l116 -149h-31z" />
    <glyph glyph-name="Aring" unicode="&#xc5;" horiz-adv-x="611" 
d="M368 668h26l94 -566c12 -70 18 -81 76 -86v-16h-246v16c52 4 78 10 78 50c0 1 0 15 -2 29l-20 131h-220l-57 -113c-14 -27 -20 -40 -20 -62c0 -26 13 -31 59 -35v-16h-187v16c38 9 47 12 129 152zM175 262h194l-44 259h-1zM284 783c0 54 42 100 100 100
c54 0 100 -45 100 -100s-46 -99 -100 -99c-57 0 -100 45 -100 99zM318 783c0 -25 19 -65 65 -65c38 0 67 28 67 65c0 36 -29 66 -67 66c-45 0 -65 -41 -65 -66z" />
    <glyph glyph-name="Atilde" unicode="&#xc3;" horiz-adv-x="611" 
d="M368 668h26l94 -566c12 -70 18 -81 76 -86v-16h-246v16c52 4 78 10 78 50c0 1 0 15 -2 29l-20 131h-220l-57 -113c-14 -27 -20 -40 -20 -62c0 -26 13 -31 59 -35v-16h-187v16c38 9 47 12 129 152zM175 262h194l-44 259h-1zM538 836h28c-11 -67 -51 -104 -96 -104
c-17 0 -45 11 -73 22c-29 11 -58 22 -77 22c-28 0 -45 -19 -52 -47h-29c10 38 27 106 101 106c54 0 107 -43 145 -43s46 23 53 44z" />
    <glyph glyph-name="Ccedilla" unicode="&#xc7;" horiz-adv-x="667" 
d="M689 664l-37 -199l-18 3c-2 28 -11 162 -154 162c-200 0 -302 -242 -302 -389c0 -131 55 -214 174 -214c113 0 183 71 231 118l17 -14c-36 -42 -119 -141 -256 -147l-33 -50c9 2 15 3 27 3c44 0 80 -24 80 -67c0 -68 -73 -87 -122 -87c-24 0 -58 8 -90 21l17 29
c18 -7 41 -15 66 -15c55 0 55 32 55 44c0 24 -22 41 -46 41c-11 0 -22 -3 -32 -7l-9 8l50 80c-113 7 -241 81 -241 268c0 193 177 414 406 414c72 0 133 -24 156 -24c29 0 35 12 40 22h21z" />
    <glyph glyph-name="Eacute" unicode="&#xc9;" horiz-adv-x="611" 
d="M634 653l-31 -153l-21 2c1 16 2 29 2 41c0 62 -27 77 -185 77c-72 0 -74 -6 -80 -26l-66 -233c161 2 167 11 189 42c9 14 18 33 28 55l18 -4l-68 -232l-20 5c4 15 7 31 7 47c0 49 0 49 -163 54c-64 -231 -68 -249 -68 -261c0 -31 43 -34 69 -34c193 0 236 38 307 137
l16 -8l-62 -162h-507v16c49 9 64 12 81 74l123 442c3 10 11 50 11 61c0 35 -26 40 -77 44v16h497zM535 812l-171 -106h-35l162 160c6 6 14 10 25 10c21 0 36 -17 36 -35c0 -15 -6 -22 -17 -29z" />
    <glyph glyph-name="Ecircumflex" unicode="&#xca;" horiz-adv-x="611" 
d="M634 653l-31 -153l-21 2c1 16 2 29 2 41c0 62 -27 77 -185 77c-72 0 -74 -6 -80 -26l-66 -233c161 2 167 11 189 42c9 14 18 33 28 55l18 -4l-68 -232l-20 5c4 15 7 31 7 47c0 49 0 49 -163 54c-64 -231 -68 -249 -68 -261c0 -31 43 -34 69 -34c193 0 236 38 307 137
l16 -8l-62 -162h-507v16c49 9 64 12 81 74l123 442c3 10 11 50 11 61c0 35 -26 40 -77 44v16h497zM466 873l88 -169h-36l-82 104l-137 -104h-39l157 169h49z" />
    <glyph glyph-name="Edieresis" unicode="&#xcb;" horiz-adv-x="611" 
d="M634 653l-31 -153l-21 2c1 16 2 29 2 41c0 62 -27 77 -185 77c-72 0 -74 -6 -80 -26l-66 -233c161 2 167 11 189 42c9 14 18 33 28 55l18 -4l-68 -232l-20 5c4 15 7 31 7 47c0 49 0 49 -163 54c-64 -231 -68 -249 -68 -261c0 -31 43 -34 69 -34c193 0 236 38 307 137
l16 -8l-62 -162h-507v16c49 9 64 12 81 74l123 442c3 10 11 50 11 61c0 35 -26 40 -77 44v16h497zM316 818c17 0 48 -16 48 -49c0 -27 -22 -49 -49 -49s-49 21 -49 50c0 33 30 48 50 48zM516 818c17 0 48 -16 48 -49c0 -27 -22 -49 -49 -49s-49 21 -49 50c0 33 30 48 50 48z
" />
    <glyph glyph-name="Egrave" unicode="&#xc8;" horiz-adv-x="611" 
d="M634 653l-31 -153l-21 2c1 16 2 29 2 41c0 62 -27 77 -185 77c-72 0 -74 -6 -80 -26l-66 -233c161 2 167 11 189 42c9 14 18 33 28 55l18 -4l-68 -232l-20 5c4 15 7 31 7 47c0 49 0 49 -163 54c-64 -231 -68 -249 -68 -261c0 -31 43 -34 69 -34c193 0 236 38 307 137
l16 -8l-62 -162h-507v16c49 9 64 12 81 74l123 442c3 10 11 50 11 61c0 35 -26 40 -77 44v16h497zM429 704l-140 106c-5 4 -19 14 -19 31c0 20 14 35 36 35c7 0 20 0 38 -23l116 -149h-31z" />
    <glyph glyph-name="Iacute" unicode="&#xcd;" horiz-adv-x="333" 
d="M-8 0v16c49 9 64 12 81 74l123 442c6 20 11 44 11 62c0 35 -27 38 -70 43v16h247v-16c-49 -9 -65 -11 -82 -74l-123 -443c-6 -20 -11 -40 -11 -64c0 -32 25 -35 68 -40v-16h-244zM416 812l-171 -106h-35l162 160c6 6 14 10 25 10c21 0 36 -17 36 -35
c0 -15 -6 -22 -17 -29z" />
    <glyph glyph-name="Icircumflex" unicode="&#xce;" horiz-adv-x="333" 
d="M-8 0v16c49 9 64 12 81 74l123 442c6 20 11 44 11 62c0 35 -27 38 -70 43v16h247v-16c-49 -9 -65 -11 -82 -74l-123 -443c-6 -20 -11 -40 -11 -64c0 -32 25 -35 68 -40v-16h-244zM337 873l88 -169h-36l-82 104l-137 -104h-39l157 169h49z" />
    <glyph glyph-name="Idieresis" unicode="&#xcf;" horiz-adv-x="333" 
d="M-8 0v16c49 9 64 12 81 74l123 442c6 20 11 44 11 62c0 35 -27 38 -70 43v16h247v-16c-49 -9 -65 -11 -82 -74l-123 -443c-6 -20 -11 -40 -11 -64c0 -32 25 -35 68 -40v-16h-244zM187 818c17 0 48 -16 48 -49c0 -27 -22 -49 -49 -49s-49 21 -49 50c0 33 30 48 50 48z
M387 818c17 0 48 -16 48 -49c0 -27 -22 -49 -49 -49s-49 21 -49 50c0 33 30 48 50 48z" />
    <glyph glyph-name="Igrave" unicode="&#xcc;" horiz-adv-x="333" 
d="M-8 0v16c49 9 64 12 81 74l123 442c6 20 11 44 11 62c0 35 -27 38 -70 43v16h247v-16c-49 -9 -65 -11 -82 -74l-123 -443c-6 -20 -11 -40 -11 -64c0 -32 25 -35 68 -40v-16h-244zM290 704l-140 106c-5 4 -19 14 -19 31c0 20 14 35 36 35c7 0 20 0 38 -23l116 -149h-31z
" />
    <glyph glyph-name="Ntilde" unicode="&#xd1;" horiz-adv-x="667" 
d="M727 653v-16c-65 -14 -70 -28 -104 -149l-144 -503h-18l-228 544h-4l-112 -416c-7 -26 -9 -44 -9 -52c0 -40 41 -43 70 -45v-16h-198v16c55 8 66 18 103 148l119 417c-17 37 -38 53 -86 56v16h161l206 -495h3l101 376c4 14 11 33 11 50c0 39 -15 49 -70 53v16h199z
M576 836h28c-11 -67 -51 -104 -96 -104c-17 0 -45 11 -73 22c-29 11 -58 22 -77 22c-28 0 -45 -19 -52 -47h-29c10 38 27 106 101 106c54 0 107 -43 145 -43s46 23 53 44z" />
    <glyph glyph-name="Oacute" unicode="&#xd3;" horiz-adv-x="722" 
d="M699 423c0 -201 -196 -441 -420 -441c-85 0 -219 55 -219 245c0 221 228 439 407 439c120 0 232 -75 232 -243zM165 181c0 -23 0 -166 130 -166c203 0 299 335 299 457c0 91 -36 161 -131 161c-198 0 -298 -322 -298 -452zM621 812l-171 -106h-35l162 160
c6 6 14 10 25 10c21 0 36 -17 36 -35c0 -15 -6 -22 -17 -29z" />
    <glyph glyph-name="Ocircumflex" unicode="&#xd4;" horiz-adv-x="722" 
d="M699 423c0 -201 -196 -441 -420 -441c-85 0 -219 55 -219 245c0 221 228 439 407 439c120 0 232 -75 232 -243zM165 181c0 -23 0 -166 130 -166c203 0 299 335 299 457c0 91 -36 161 -131 161c-198 0 -298 -322 -298 -452zM527 873l88 -169h-36l-82 104l-137 -104h-39
l157 169h49z" />
    <glyph glyph-name="Odieresis" unicode="&#xd6;" horiz-adv-x="722" 
d="M699 423c0 -201 -196 -441 -420 -441c-85 0 -219 55 -219 245c0 221 228 439 407 439c120 0 232 -75 232 -243zM165 181c0 -23 0 -166 130 -166c203 0 299 335 299 457c0 91 -36 161 -131 161c-198 0 -298 -322 -298 -452zM387 818c17 0 48 -16 48 -49
c0 -27 -22 -49 -49 -49s-49 21 -49 50c0 33 30 48 50 48zM587 818c17 0 48 -16 48 -49c0 -27 -22 -49 -49 -49s-49 21 -49 50c0 33 30 48 50 48z" />
    <glyph glyph-name="Ograve" unicode="&#xd2;" horiz-adv-x="722" 
d="M699 423c0 -201 -196 -441 -420 -441c-85 0 -219 55 -219 245c0 221 228 439 407 439c120 0 232 -75 232 -243zM165 181c0 -23 0 -166 130 -166c203 0 299 335 299 457c0 91 -36 161 -131 161c-198 0 -298 -322 -298 -452zM485 704l-140 106c-5 4 -19 14 -19 31
c0 20 14 35 36 35c7 0 20 0 38 -23l116 -149h-31z" />
    <glyph glyph-name="Otilde" unicode="&#xd5;" horiz-adv-x="722" 
d="M699 423c0 -201 -196 -441 -420 -441c-85 0 -219 55 -219 245c0 221 228 439 407 439c120 0 232 -75 232 -243zM165 181c0 -23 0 -166 130 -166c203 0 299 335 299 457c0 91 -36 161 -131 161c-198 0 -298 -322 -298 -452zM614 836h28c-11 -67 -51 -104 -96 -104
c-17 0 -45 11 -73 22c-29 11 -58 22 -77 22c-28 0 -45 -19 -52 -47h-29c10 38 27 106 101 106c54 0 107 -43 145 -43s46 23 53 44z" />
    <glyph glyph-name="Scaron" unicode="&#x160;" 
d="M468 468l-18 3c-1 57 -4 162 -125 162c-55 0 -106 -33 -106 -100c0 -47 12 -71 99 -156c92 -92 113 -131 113 -197c0 -94 -70 -198 -203 -198c-69 0 -120 36 -154 36c-28 0 -35 -20 -39 -33h-18l34 223l20 -2c-1 -8 -2 -13 -2 -21c0 -89 56 -168 146 -168
c94 0 129 82 129 132c0 64 -37 95 -70 130c-138 147 -143 158 -143 223c0 97 79 164 172 164c45 0 69 -6 87 -12c19 -7 31 -13 51 -13c23 0 32 8 44 26h23zM520 873l-163 -169h-46l-96 169h37l90 -105l142 105h36z" />
    <glyph glyph-name="Uacute" unicode="&#xda;" horiz-adv-x="722" 
d="M765 653v-16c-64 -14 -68 -25 -104 -149l-83 -285c-39 -133 -110 -221 -263 -221c-102 0 -213 55 -213 169c0 101 103 393 103 443c0 36 -20 38 -78 43v16h273v-16c-47 -5 -83 -12 -101 -78c-13 -46 -107 -361 -107 -415c0 -89 75 -121 139 -121c138 0 187 117 215 218
c8 31 91 327 91 345c0 44 -33 48 -71 51v16h199zM621 812l-171 -106h-35l162 160c6 6 14 10 25 10c21 0 36 -17 36 -35c0 -15 -6 -22 -17 -29z" />
    <glyph glyph-name="Ucircumflex" unicode="&#xdb;" horiz-adv-x="722" 
d="M765 653v-16c-64 -14 -68 -25 -104 -149l-83 -285c-39 -133 -110 -221 -263 -221c-102 0 -213 55 -213 169c0 101 103 393 103 443c0 36 -20 38 -78 43v16h273v-16c-47 -5 -83 -12 -101 -78c-13 -46 -107 -361 -107 -415c0 -89 75 -121 139 -121c138 0 187 117 215 218
c8 31 91 327 91 345c0 44 -33 48 -71 51v16h199zM512 873l88 -169h-36l-82 104l-137 -104h-39l157 169h49z" />
    <glyph glyph-name="Udieresis" unicode="&#xdc;" horiz-adv-x="722" 
d="M765 653v-16c-64 -14 -68 -25 -104 -149l-83 -285c-39 -133 -110 -221 -263 -221c-102 0 -213 55 -213 169c0 101 103 393 103 443c0 36 -20 38 -78 43v16h273v-16c-47 -5 -83 -12 -101 -78c-13 -46 -107 -361 -107 -415c0 -89 75 -121 139 -121c138 0 187 117 215 218
c8 31 91 327 91 345c0 44 -33 48 -71 51v16h199zM422 818c17 0 48 -16 48 -49c0 -27 -22 -49 -49 -49s-49 21 -49 50c0 33 30 48 50 48zM622 818c17 0 48 -16 48 -49c0 -27 -22 -49 -49 -49s-49 21 -49 50c0 33 30 48 50 48z" />
    <glyph glyph-name="Ugrave" unicode="&#xd9;" horiz-adv-x="722" 
d="M765 653v-16c-64 -14 -68 -25 -104 -149l-83 -285c-39 -133 -110 -221 -263 -221c-102 0 -213 55 -213 169c0 101 103 393 103 443c0 36 -20 38 -78 43v16h273v-16c-47 -5 -83 -12 -101 -78c-13 -46 -107 -361 -107 -415c0 -89 75 -121 139 -121c138 0 187 117 215 218
c8 31 91 327 91 345c0 44 -33 48 -71 51v16h199zM495 704l-140 106c-5 4 -19 14 -19 31c0 20 14 35 36 35c7 0 20 0 38 -23l116 -149h-31z" />
    <glyph glyph-name="Yacute" unicode="&#xdd;" horiz-adv-x="556" 
d="M91 637v16h239v-16c-46 -4 -72 -6 -72 -38c0 -27 43 -160 67 -252c45 56 188 214 188 256c0 27 -18 29 -69 34v16h189v-16c-27 -13 -38 -21 -70 -61l-219 -270l-29 -101c-16 -54 -37 -117 -37 -146c0 -37 19 -38 89 -43v-16h-289v16c47 4 86 8 105 74l61 212l-77 269
c-16 57 -24 58 -76 66zM558 812l-171 -106h-35l162 160c6 6 14 10 25 10c21 0 36 -17 36 -35c0 -15 -6 -22 -17 -29z" />
    <glyph glyph-name="Ydieresis" unicode="&#x178;" horiz-adv-x="556" 
d="M91 637v16h239v-16c-46 -4 -72 -6 -72 -38c0 -27 43 -160 67 -252c45 56 188 214 188 256c0 27 -18 29 -69 34v16h189v-16c-27 -13 -38 -21 -70 -61l-219 -270l-29 -101c-16 -54 -37 -117 -37 -146c0 -37 19 -38 89 -43v-16h-289v16c47 4 86 8 105 74l61 212l-77 269
c-16 57 -24 58 -76 66zM299 818c17 0 48 -16 48 -49c0 -27 -22 -49 -49 -49s-49 21 -49 50c0 33 30 48 50 48zM499 818c17 0 48 -16 48 -49c0 -27 -22 -49 -49 -49s-49 21 -49 50c0 33 30 48 50 48z" />
    <glyph glyph-name="Zcaron" unicode="&#x17d;" horiz-adv-x="556" 
d="M606 653v-14l-483 -603h161c164 0 201 32 250 135l19 -3l-54 -168h-505v14l479 603h-171c-153 0 -175 -46 -209 -115l-19 5l46 146h486zM538 873l-163 -169h-46l-96 169h37l90 -105l142 105h36z" />
    <glyph glyph-name="aacute" unicode="&#xe1;" 
d="M464 110l12 -10c-60 -74 -94 -110 -137 -110c-42 0 -42 26 -42 43c0 23 5 45 21 106l-2 2c-83 -122 -136 -152 -196 -152c-100 0 -103 89 -103 118c0 147 153 334 286 334c43 0 76 -26 79 -54h2l10 44l3 3l61 7l7 -3c-3 -12 -95 -353 -95 -384c0 -7 6 -13 14 -13
c15 0 35 25 80 69zM101 109c0 -53 33 -71 60 -71c106 0 204 216 204 314c0 48 -28 67 -57 67c-117 0 -207 -220 -207 -310zM470 600l-171 -106h-35l162 160c6 6 14 10 25 10c21 0 36 -17 36 -35c0 -15 -6 -22 -17 -29z" />
    <glyph glyph-name="acircumflex" unicode="&#xe2;" 
d="M464 110l12 -10c-60 -74 -94 -110 -137 -110c-42 0 -42 26 -42 43c0 23 5 45 21 106l-2 2c-83 -122 -136 -152 -196 -152c-100 0 -103 89 -103 118c0 147 153 334 286 334c43 0 76 -26 79 -54h2l10 44l3 3l61 7l7 -3c-3 -12 -95 -353 -95 -384c0 -7 6 -13 14 -13
c15 0 35 25 80 69zM101 109c0 -53 33 -71 60 -71c106 0 204 216 204 314c0 48 -28 67 -57 67c-117 0 -207 -220 -207 -310zM381 661l88 -169h-36l-82 104l-137 -104h-39l157 169h49z" />
    <glyph glyph-name="adieresis" unicode="&#xe4;" 
d="M464 110l12 -10c-60 -74 -94 -110 -137 -110c-42 0 -42 26 -42 43c0 23 5 45 21 106l-2 2c-83 -122 -136 -152 -196 -152c-100 0 -103 89 -103 118c0 147 153 334 286 334c43 0 76 -26 79 -54h2l10 44l3 3l61 7l7 -3c-3 -12 -95 -353 -95 -384c0 -7 6 -13 14 -13
c15 0 35 25 80 69zM101 109c0 -53 33 -71 60 -71c106 0 204 216 204 314c0 48 -28 67 -57 67c-117 0 -207 -220 -207 -310zM241 606c17 0 48 -16 48 -49c0 -27 -22 -49 -49 -49s-49 21 -49 50c0 33 30 48 50 48zM441 606c17 0 48 -16 48 -49c0 -27 -22 -49 -49 -49
s-49 21 -49 50c0 33 30 48 50 48z" />
    <glyph glyph-name="agrave" unicode="&#xe0;" 
d="M464 110l12 -10c-60 -74 -94 -110 -137 -110c-42 0 -42 26 -42 43c0 23 5 45 21 106l-2 2c-83 -122 -136 -152 -196 -152c-100 0 -103 89 -103 118c0 147 153 334 286 334c43 0 76 -26 79 -54h2l10 44l3 3l61 7l7 -3c-3 -12 -95 -353 -95 -384c0 -7 6 -13 14 -13
c15 0 35 25 80 69zM101 109c0 -53 33 -71 60 -71c106 0 204 216 204 314c0 48 -28 67 -57 67c-117 0 -207 -220 -207 -310zM364 492l-140 106c-5 4 -19 14 -19 31c0 20 14 35 36 35c7 0 20 0 38 -23l116 -149h-31z" />
    <glyph glyph-name="aring" unicode="&#xe5;" 
d="M464 110l12 -10c-60 -74 -94 -110 -137 -110c-42 0 -42 26 -42 43c0 23 5 45 21 106l-2 2c-83 -122 -136 -152 -196 -152c-100 0 -103 89 -103 118c0 147 153 334 286 334c43 0 76 -26 79 -54h2l10 44l3 3l61 7l7 -3c-3 -12 -95 -353 -95 -384c0 -7 6 -13 14 -13
c15 0 35 25 80 69zM101 109c0 -53 33 -71 60 -71c106 0 204 216 204 314c0 48 -28 67 -57 67c-117 0 -207 -220 -207 -310zM239 591c0 54 42 100 100 100c54 0 100 -45 100 -100s-46 -99 -100 -99c-57 0 -100 45 -100 99zM273 591c0 -25 19 -65 65 -65c38 0 67 28 67 65
c0 36 -29 66 -67 66c-45 0 -65 -41 -65 -66z" />
    <glyph glyph-name="atilde" unicode="&#xe3;" 
d="M464 110l12 -10c-60 -74 -94 -110 -137 -110c-42 0 -42 26 -42 43c0 23 5 45 21 106l-2 2c-83 -122 -136 -152 -196 -152c-100 0 -103 89 -103 118c0 147 153 334 286 334c43 0 76 -26 79 -54h2l10 44l3 3l61 7l7 -3c-3 -12 -95 -353 -95 -384c0 -7 6 -13 14 -13
c15 0 35 25 80 69zM101 109c0 -53 33 -71 60 -71c106 0 204 216 204 314c0 48 -28 67 -57 67c-117 0 -207 -220 -207 -310zM483 624h28c-11 -67 -51 -104 -96 -104c-17 0 -45 11 -73 22c-29 11 -58 22 -77 22c-28 0 -45 -19 -52 -47h-29c10 38 27 106 101 106
c54 0 107 -43 145 -43s46 23 53 44z" />
    <glyph glyph-name="ccedilla" unicode="&#xe7;" horiz-adv-x="444" 
d="M350 106l16 -10c-24 -30 -77 -100 -173 -106l-38 -56c9 2 15 3 27 3c44 0 80 -24 80 -67c0 -68 -73 -87 -122 -87c-24 0 -58 8 -90 21l17 29c18 -7 41 -15 66 -15c55 0 55 32 55 44c0 24 -22 41 -46 41c-11 0 -22 -3 -32 -7l-9 8l54 86c-60 6 -125 39 -125 157
c0 141 138 294 286 294c84 0 109 -50 109 -81c0 -28 -22 -46 -47 -46s-40 14 -40 37c0 26 15 32 15 49c0 15 -20 20 -38 20c-130 0 -199 -177 -199 -273c0 -77 30 -122 91 -122c60 0 107 41 143 81z" />
    <glyph glyph-name="eacute" unicode="&#xe9;" horiz-adv-x="444" 
d="M152 252l-17 -44c206 42 211 162 211 170c0 21 -10 40 -35 40c-54 0 -122 -77 -159 -166zM358 109l12 -12c-11 -16 -102 -108 -202 -108c-105 0 -137 78 -137 141c0 143 158 311 299 311c51 0 82 -24 82 -68c0 -79 -94 -160 -256 -183l-28 -4c-5 -21 -10 -41 -10 -61
c0 -68 52 -91 94 -91c54 0 96 34 146 75zM442 600l-171 -106h-35l162 160c6 6 14 10 25 10c21 0 36 -17 36 -35c0 -15 -6 -22 -17 -29z" />
    <glyph glyph-name="ecircumflex" unicode="&#xea;" horiz-adv-x="444" 
d="M152 252l-17 -44c206 42 211 162 211 170c0 21 -10 40 -35 40c-54 0 -122 -77 -159 -166zM358 109l12 -12c-11 -16 -102 -108 -202 -108c-105 0 -137 78 -137 141c0 143 158 311 299 311c51 0 82 -24 82 -68c0 -79 -94 -160 -256 -183l-28 -4c-5 -21 -10 -41 -10 -61
c0 -68 52 -91 94 -91c54 0 96 34 146 75zM353 661l88 -169h-36l-82 104l-137 -104h-39l157 169h49z" />
    <glyph glyph-name="edieresis" unicode="&#xeb;" horiz-adv-x="444" 
d="M152 252l-17 -44c206 42 211 162 211 170c0 21 -10 40 -35 40c-54 0 -122 -77 -159 -166zM358 109l12 -12c-11 -16 -102 -108 -202 -108c-105 0 -137 78 -137 141c0 143 158 311 299 311c51 0 82 -24 82 -68c0 -79 -94 -160 -256 -183l-28 -4c-5 -21 -10 -41 -10 -61
c0 -68 52 -91 94 -91c54 0 96 34 146 75zM203 606c17 0 48 -16 48 -49c0 -27 -22 -49 -49 -49s-49 21 -49 50c0 33 30 48 50 48zM403 606c17 0 48 -16 48 -49c0 -27 -22 -49 -49 -49s-49 21 -49 50c0 33 30 48 50 48z" />
    <glyph glyph-name="egrave" unicode="&#xe8;" horiz-adv-x="444" 
d="M152 252l-17 -44c206 42 211 162 211 170c0 21 -10 40 -35 40c-54 0 -122 -77 -159 -166zM358 109l12 -12c-11 -16 -102 -108 -202 -108c-105 0 -137 78 -137 141c0 143 158 311 299 311c51 0 82 -24 82 -68c0 -79 -94 -160 -256 -183l-28 -4c-5 -21 -10 -41 -10 -61
c0 -68 52 -91 94 -91c54 0 96 34 146 75zM336 492l-140 106c-5 4 -19 14 -19 31c0 20 14 35 36 35c7 0 20 0 38 -23l116 -149h-31z" />
    <glyph glyph-name="iacute" unicode="&#xed;" horiz-adv-x="278" 
d="M222 114l13 -11c-39 -59 -83 -114 -139 -114c-47 0 -47 44 -47 62c0 47 79 295 79 323c0 21 -8 26 -63 26v16c38 2 121 18 160 25l3 -2l-88 -322c-4 -14 -16 -54 -16 -66c0 -7 7 -15 16 -15c12 0 41 20 82 78zM338 600l-171 -106h-35l162 160c6 6 14 10 25 10
c21 0 36 -17 36 -35c0 -15 -6 -22 -17 -29z" />
    <glyph glyph-name="icircumflex" unicode="&#xee;" horiz-adv-x="278" 
d="M222 114l13 -11c-39 -59 -83 -114 -139 -114c-47 0 -47 44 -47 62c0 47 79 295 79 323c0 21 -8 26 -63 26v16c38 2 121 18 160 25l3 -2l-88 -322c-4 -14 -16 -54 -16 -66c0 -7 7 -15 16 -15c12 0 41 20 82 78zM239 661l88 -169h-36l-82 104l-137 -104h-39l157 169h49z
" />
    <glyph glyph-name="idieresis" unicode="&#xef;" horiz-adv-x="278" 
d="M222 114l13 -11c-39 -59 -83 -114 -139 -114c-47 0 -47 44 -47 62c0 47 79 295 79 323c0 21 -8 26 -63 26v16c38 2 121 18 160 25l3 -2l-88 -322c-4 -14 -16 -54 -16 -66c0 -7 7 -15 16 -15c12 0 41 20 82 78zM104 606c17 0 48 -16 48 -49c0 -27 -22 -49 -49 -49
s-49 21 -49 50c0 33 30 48 50 48zM304 606c17 0 48 -16 48 -49c0 -27 -22 -49 -49 -49s-49 21 -49 50c0 33 30 48 50 48z" />
    <glyph glyph-name="igrave" unicode="&#xec;" horiz-adv-x="278" 
d="M222 114l13 -11c-39 -59 -83 -114 -139 -114c-47 0 -47 44 -47 62c0 47 79 295 79 323c0 21 -8 26 -63 26v16c38 2 121 18 160 25l3 -2l-88 -322c-4 -14 -16 -54 -16 -66c0 -7 7 -15 16 -15c12 0 41 20 82 78zM253 492l-140 106c-5 4 -19 14 -19 31c0 20 14 35 36 35
c7 0 20 0 38 -23l116 -149h-31z" />
    <glyph glyph-name="ntilde" unicode="&#xf1;" 
d="M460 117l14 -13c-50 -67 -85 -113 -139 -113c-46 0 -48 30 -48 59c0 24 74 268 74 308c0 18 -6 32 -25 32c-48 0 -111 -86 -147 -142c-46 -69 -59 -112 -100 -248h-75c31 113 98 347 98 368c0 15 -10 26 -64 26v16c54 10 108 20 162 31l3 -2l-64 -209l2 -2
c47 74 139 213 222 213c46 0 69 -24 69 -66c0 -43 -80 -290 -80 -320c0 -15 14 -17 16 -17c20 0 45 32 82 79zM448 624h28c-11 -67 -51 -104 -96 -104c-17 0 -45 11 -73 22c-29 11 -58 22 -77 22c-28 0 -45 -19 -52 -47h-29c10 38 27 106 101 106c54 0 107 -43 145 -43
s46 23 53 44z" />
    <glyph glyph-name="oacute" unicode="&#xf3;" 
d="M321 441c116 0 147 -82 147 -148c0 -123 -137 -304 -290 -304c-106 0 -151 61 -151 144c0 147 148 308 294 308zM314 420c-112 0 -203 -199 -203 -317c0 -57 30 -93 80 -93c114 0 193 207 193 314c0 52 -22 96 -70 96zM470 600l-171 -106h-35l162 160c6 6 14 10 25 10
c21 0 36 -17 36 -35c0 -15 -6 -22 -17 -29z" />
    <glyph glyph-name="ocircumflex" unicode="&#xf4;" 
d="M321 441c116 0 147 -82 147 -148c0 -123 -137 -304 -290 -304c-106 0 -151 61 -151 144c0 147 148 308 294 308zM314 420c-112 0 -203 -199 -203 -317c0 -57 30 -93 80 -93c114 0 193 207 193 314c0 52 -22 96 -70 96zM371 661l88 -169h-36l-82 104l-137 -104h-39
l157 169h49z" />
    <glyph glyph-name="odieresis" unicode="&#xf6;" 
d="M321 441c116 0 147 -82 147 -148c0 -123 -137 -304 -290 -304c-106 0 -151 61 -151 144c0 147 148 308 294 308zM314 420c-112 0 -203 -199 -203 -317c0 -57 30 -93 80 -93c114 0 193 207 193 314c0 52 -22 96 -70 96zM241 606c17 0 48 -16 48 -49c0 -27 -22 -49 -49 -49
s-49 21 -49 50c0 33 30 48 50 48zM441 606c17 0 48 -16 48 -49c0 -27 -22 -49 -49 -49s-49 21 -49 50c0 33 30 48 50 48z" />
    <glyph glyph-name="ograve" unicode="&#xf2;" 
d="M321 441c116 0 147 -82 147 -148c0 -123 -137 -304 -290 -304c-106 0 -151 61 -151 144c0 147 148 308 294 308zM314 420c-112 0 -203 -199 -203 -317c0 -57 30 -93 80 -93c114 0 193 207 193 314c0 52 -22 96 -70 96zM364 492l-140 106c-5 4 -19 14 -19 31
c0 20 14 35 36 35c7 0 20 0 38 -23l116 -149h-31z" />
    <glyph glyph-name="otilde" unicode="&#xf5;" 
d="M321 441c116 0 147 -82 147 -148c0 -123 -137 -304 -290 -304c-106 0 -151 61 -151 144c0 147 148 308 294 308zM314 420c-112 0 -203 -199 -203 -317c0 -57 30 -93 80 -93c114 0 193 207 193 314c0 52 -22 96 -70 96zM468 624h28c-11 -67 -51 -104 -96 -104
c-17 0 -45 11 -73 22c-29 11 -58 22 -77 22c-28 0 -45 -19 -52 -47h-29c10 38 27 106 101 106c54 0 107 -43 145 -43s46 23 53 44z" />
    <glyph glyph-name="scaron" unicode="&#x161;" horiz-adv-x="389" 
d="M36 146h16c7 -44 23 -136 104 -136c56 0 72 48 72 81c0 66 -119 162 -119 239c0 31 14 111 120 111c45 0 65 -17 95 -17c17 0 23 10 28 18h14l-20 -139h-16c-5 57 -29 115 -94 115c-22 0 -54 -9 -54 -58c0 -63 122 -152 122 -237c0 -109 -93 -134 -149 -134
c-30 0 -70 19 -99 19c-14 0 -18 -10 -24 -21h-16zM454 661l-163 -169h-46l-96 169h37l90 -105l142 105h36z" />
    <glyph glyph-name="uacute" unicode="&#xfa;" 
d="M461 117l14 -9c-63 -91 -89 -117 -139 -117c-45 0 -47 37 -47 52c0 18 20 102 43 184h-3c-68 -113 -142 -238 -232 -238c-36 0 -55 15 -55 59s76 296 76 323c0 29 -19 29 -60 29v14c50 6 100 15 150 27l3 -2l-91 -363c-1 -3 -1 -6 -1 -9c0 -12 5 -25 22 -25
c43 0 106 94 140 146c49 74 71 137 110 244h74l-79 -299c-6 -20 -19 -64 -19 -79c0 -5 1 -16 12 -16c19 0 47 35 82 79zM460 600l-171 -106h-35l162 160c6 6 14 10 25 10c21 0 36 -17 36 -35c0 -15 -6 -22 -17 -29z" />
    <glyph glyph-name="ucircumflex" unicode="&#xfb;" 
d="M461 117l14 -9c-63 -91 -89 -117 -139 -117c-45 0 -47 37 -47 52c0 18 20 102 43 184h-3c-68 -113 -142 -238 -232 -238c-36 0 -55 15 -55 59s76 296 76 323c0 29 -19 29 -60 29v14c50 6 100 15 150 27l3 -2l-91 -363c-1 -3 -1 -6 -1 -9c0 -12 5 -25 22 -25
c43 0 106 94 140 146c49 74 71 137 110 244h74l-79 -299c-6 -20 -19 -64 -19 -79c0 -5 1 -16 12 -16c19 0 47 35 82 79zM371 661l88 -169h-36l-82 104l-137 -104h-39l157 169h49z" />
    <glyph glyph-name="udieresis" unicode="&#xfc;" 
d="M461 117l14 -9c-63 -91 -89 -117 -139 -117c-45 0 -47 37 -47 52c0 18 20 102 43 184h-3c-68 -113 -142 -238 -232 -238c-36 0 -55 15 -55 59s76 296 76 323c0 29 -19 29 -60 29v14c50 6 100 15 150 27l3 -2l-91 -363c-1 -3 -1 -6 -1 -9c0 -12 5 -25 22 -25
c43 0 106 94 140 146c49 74 71 137 110 244h74l-79 -299c-6 -20 -19 -64 -19 -79c0 -5 1 -16 12 -16c19 0 47 35 82 79zM231 606c17 0 48 -16 48 -49c0 -27 -22 -49 -49 -49s-49 21 -49 50c0 33 30 48 50 48zM431 606c17 0 48 -16 48 -49c0 -27 -22 -49 -49 -49
s-49 21 -49 50c0 33 30 48 50 48z" />
    <glyph glyph-name="ugrave" unicode="&#xf9;" 
d="M461 117l14 -9c-63 -91 -89 -117 -139 -117c-45 0 -47 37 -47 52c0 18 20 102 43 184h-3c-68 -113 -142 -238 -232 -238c-36 0 -55 15 -55 59s76 296 76 323c0 29 -19 29 -60 29v14c50 6 100 15 150 27l3 -2l-91 -363c-1 -3 -1 -6 -1 -9c0 -12 5 -25 22 -25
c43 0 106 94 140 146c49 74 71 137 110 244h74l-79 -299c-6 -20 -19 -64 -19 -79c0 -5 1 -16 12 -16c19 0 47 35 82 79zM364 492l-140 106c-5 4 -19 14 -19 31c0 20 14 35 36 35c7 0 20 0 38 -23l116 -149h-31z" />
    <glyph glyph-name="yacute" unicode="&#xfd;" horiz-adv-x="444" 
d="M15 400v17c48 8 126 24 144 24c13 0 72 -178 85 -253l20 -116c43 70 122 205 122 258c0 41 -54 30 -54 76c0 14 11 35 37 35c37 0 57 -26 57 -62c0 -119 -280 -585 -399 -585c-8 0 -51 3 -51 45c0 21 17 38 38 38c30 0 43 -28 61 -28c16 0 29 9 63 49c25 29 67 78 67 105
c0 38 -42 213 -59 267c-27 91 -40 134 -97 134c-15 0 -22 -1 -34 -4zM442 600l-171 -106h-35l162 160c6 6 14 10 25 10c21 0 36 -17 36 -35c0 -15 -6 -22 -17 -29z" />
    <glyph glyph-name="ydieresis" unicode="&#xff;" horiz-adv-x="444" 
d="M15 400v17c48 8 126 24 144 24c13 0 72 -178 85 -253l20 -116c43 70 122 205 122 258c0 41 -54 30 -54 76c0 14 11 35 37 35c37 0 57 -26 57 -62c0 -119 -280 -585 -399 -585c-8 0 -51 3 -51 45c0 21 17 38 38 38c30 0 43 -28 61 -28c16 0 29 9 63 49c25 29 67 78 67 105
c0 38 -42 213 -59 267c-27 91 -40 134 -97 134c-15 0 -22 -1 -34 -4zM193 606c17 0 48 -16 48 -49c0 -27 -22 -49 -49 -49s-49 21 -49 50c0 33 30 48 50 48zM393 606c17 0 48 -16 48 -49c0 -27 -22 -49 -49 -49s-49 21 -49 50c0 33 30 48 50 48z" />
    <glyph glyph-name="zcaron" unicode="&#x17e;" horiz-adv-x="389" 
d="M81 309l-16 4l31 115h284v-11l-290 -344c66 -14 83 -33 135 -100c26 -33 45 -33 55 -33c12 0 28 3 28 16c0 11 -14 22 -14 44c0 17 12 31 35 31c9 0 34 -5 34 -37c0 -38 -43 -75 -94 -75c-75 0 -147 86 -217 86c-17 0 -32 -7 -45 -18l-9 9l310 372h-146
c-38 0 -59 -3 -81 -59zM434 661l-163 -169h-46l-96 169h37l90 -105l142 105h36z" />
    <glyph glyph-name="one.superior" horiz-adv-x="300" 
d="M224 287v-16h-181v16c34 4 59 6 65 25l90 285c2 6 5 15 5 20c0 19 -16 19 -18 19l-37 -1v19c30 4 121 22 130 22c4 0 6 -2 6 -6c0 -3 -2 -8 -4 -15l-86 -274c-13 -42 -19 -64 -19 -73c0 -19 20 -21 49 -21z" />
    <glyph glyph-name="two.superior" horiz-adv-x="300" 
d="M286 358l11 -8l-33 -79h-231v18l133 130c91 90 93 125 93 140c0 30 -29 66 -76 66c-58 0 -83 -42 -92 -53l-13 8c35 94 120 96 138 96c69 0 105 -55 108 -96c0 -40 -16 -67 -99 -141l-114 -110l2 -5h108c43 0 53 13 65 34z" />
    <glyph glyph-name="three.superior" horiz-adv-x="300" 
d="M149 608l-10 7c16 36 65 61 102 61c48 0 95 -24 98 -73c0 -46 -33 -67 -101 -90l4 -2c16 -7 59 -24 59 -85v-6c0 -67 -59 -152 -183 -152c-39 0 -75 8 -75 39c0 13 7 24 28 28c30 0 51 -36 84 -36c22 0 83 20 83 88c0 78 -49 102 -101 102h-12v9c57 9 147 35 147 93
c0 40 -31 53 -49 53c-41 0 -64 -27 -74 -36z" />
    <glyph glyph-name="Delta" unicode="&#x2206;" horiz-adv-x="571" 
d="M463 0h-506l6 21l410 637l35 10l61 -647zM385 41l-46 511l-324 -511h370z" />
    <glyph glyph-name="Omega" unicode="&#x2126;" horiz-adv-x="654" 
d="M583 129l-57 -129h-210l-2 16c63 81 179 208 217 348c55 202 -13 277 -103 277c-97 0 -198 -76 -255 -282c-38 -135 -1 -252 23 -342l-12 -17h-207l15 129l21 2c2 -63 14 -73 49 -73h96c-41 53 -110 153 -67 307c51 186 200 303 347 303c150 0 229 -110 177 -295
c-38 -139 -158 -246 -241 -315h99c38 0 50 8 88 73z" />
    <glyph glyph-name="uni03BC" unicode="&#x3bc;" horiz-adv-x="514" 
d="M479 108l-5 -13c-32 -91 -87 -106 -124 -106c-44 0 -55 36 -55 74c0 25 8 67 12 83l-1 -4v1s1 5 6 23h-1c-65 -113 -121 -177 -201 -177c-26 0 -50 20 -57 52c-7 -22 -26 -136 -26 -172c0 -50 -8 -77 -39 -77c-20 0 -31 13 -31 39c0 20 39 98 84 258l2 8c0 1 0 3 1 5
l90 326h76l-78 -289c-4 -14 -11 -39 -11 -61c0 -23 7 -42 33 -42c57 0 112 96 141 151c29 56 50 121 58 147c0 0 17 59 30 94h74l-80 -295c-4 -14 -11 -52 -11 -67v-3c0 -12 1 -29 19 -29c16 0 45 12 74 71c1 3 4 9 4 9z" />
    <glyph glyph-name="pi" unicode="&#x3c0;" horiz-adv-x="511" 
d="M512 448l19 -9c-17 -35 -37 -61 -53 -78c-16 -4 -39 -4 -65 -4c-21 -58 -49 -163 -67 -229c-16 -57 -14 -88 16 -88c19 0 33 10 55 29l7 -18c-35 -43 -77 -62 -109 -62c-46 0 -72 25 -46 120c25 88 53 173 80 250c-54 1 -108 2 -146 2l-5 -19
c-61 -218 -137 -321 -154 -337c-17 -7 -44 -15 -57 -16l-1 15c92 87 156 259 184 359c-62 0 -91 -19 -131 -44l-7 19c34 31 83 82 176 82c67 -1 151 -4 241 -4c28 0 40 5 63 32z" />
    <glyph glyph-name="Euro" unicode="&#x20ac;" 
d="M555 699h14l-23 -163h-23c-4 93 -40 139 -108 139c-88 0 -157 -75 -208 -225h278l-24 -47h-269c-5 -15 -10 -33 -13 -53h262l-24 -47h-247c-3 -20 -4 -39 -4 -56c0 -57 11 -106 32 -145c27 -49 66 -74 119 -74c46 0 102 20 167 61l-1 -33c-71 -47 -133 -70 -188 -70
c-71 0 -127 28 -168 83c-37 50 -56 112 -56 185c0 17 1 33 3 49h-44l23 47h26c3 21 7 38 12 53h-63l24 47h55c29 71 68 129 117 174c57 53 120 80 188 80c15 0 36 -5 63 -15c27 -9 44 -14 51 -14c14 0 24 8 29 24z" />
    <glyph glyph-name="afii61289" unicode="&#x2113;" horiz-adv-x="369" 
d="M291 110l13 -14c-52 -66 -111 -101 -175 -101c-42 0 -68 13 -80 37c-14 27 -14 59 7 137l23 83l-66 -43l-5 21l80 55l34 121c44 159 66 210 118 256c31 30 60 44 88 44c53 0 65 -56 45 -125c-31 -114 -117 -204 -211 -282l-27 -94c-35 -127 -14 -161 38 -161
c43 0 82 28 118 66zM207 463l-34 -123c70 65 133 158 156 241c16 57 13 97 -16 97c-34 0 -62 -57 -106 -215z" />
    <glyph glyph-name="estimated" unicode="&#x212e;" horiz-adv-x="933" 
d="M901 324h-613c-3 0 -5 -1 -5 -4v-185c0 -8 3 -15 8 -21c59 -62 141 -101 232 -101c98 0 184 44 244 113h54c-67 -80 -177 -132 -299 -132c-209 0 -379 152 -379 339c0 189 170 341 379 341c210 0 379 -152 379 -341v-9zM762 349v186c0 8 -3 16 -9 22
c-60 59 -141 97 -230 97c-90 0 -172 -39 -231 -100c-6 -6 -9 -14 -9 -23v-182c0 -2 2 -6 5 -6h470c3 0 4 4 4 6z" />
    <glyph glyph-name="partialdiff" unicode="&#x2202;" horiz-adv-x="477" 
d="M277 413h1c42 0 87 -20 105 -67c11 31 24 65 35 102c15 48 23 101 18 151c-5 46 -38 96 -97 96c-47 0 -97 -24 -136 -51c-15 -2 -24 33 -11 54c37 21 85 39 137 39c85 0 129 -51 147 -135c16 -73 -1 -164 -17 -221c-19 -70 -57 -168 -109 -240
c-61 -86 -138 -146 -223 -146c-98 0 -143 71 -111 190c18 65 58 121 96 157c44 40 107 71 165 71zM285 377h-1c-39 0 -77 -15 -117 -56c-40 -45 -72 -110 -89 -174c-19 -67 -1 -125 56 -125c50 0 100 52 135 101c42 58 65 108 96 184c-4 27 -31 70 -80 70z" />
    <glyph glyph-name="product" unicode="&#x220f;" horiz-adv-x="722" 
d="M697 659v-24c-78 -5 -82 -11 -82 -62v-561c0 -59 6 -66 80 -72v-23h-228v23c71 5 76 9 76 72v587c0 27 -5 30 -32 30h-194c-26 0 -30 -3 -30 -26v-591c0 -58 -1 -65 69 -72v-23h-221v23c73 6 80 11 80 72v561c0 51 -5 56 -83 62v24h565z" />
    <glyph glyph-name="summation" unicode="&#x2211;" horiz-adv-x="605" 
d="M584 84l-38 -169h-412v20l206 335l-202 368v21h408c1 -18 7 -88 11 -148l-24 -4c-7 44 -17 73 -28 93c-12 22 -27 30 -96 30h-179l174 -312l-206 -339h236c79 0 90 5 126 111z" />
    <glyph glyph-name="uni2219" unicode="&#x2219;" horiz-adv-x="250" 
d="M125 199c-21 0 -55 16 -55 54c0 32 25 57 55 57s56 -26 56 -57c0 -37 -35 -54 -56 -54z" />
    <glyph glyph-name="radical" unicode="&#x221a;" horiz-adv-x="611" 
d="M595 846l-150 -985l-18 -9l-198 522l-79 -37l-10 29l138 64l155 -423h2l126 847z" />
    <glyph glyph-name="infinity" unicode="&#x221e;" horiz-adv-x="731" 
d="M687 274v-1c0 -90 -66 -145 -137 -145c-56 0 -101 32 -163 105c-47 -55 -96 -105 -168 -105c-73 0 -136 60 -136 141c0 84 60 145 142 145c67 0 118 -49 165 -105c44 49 89 105 165 105c78 -1 132 -57 132 -140zM225 174h1c56 0 98 53 134 94c-39 49 -78 100 -140 100
c-56 0 -88 -45 -88 -100c0 -52 38 -94 93 -94zM550 368h-1c-58 0 -105 -64 -135 -96c58 -66 90 -98 138 -98c55 0 87 50 87 95c0 62 -37 99 -89 99z" />
    <glyph glyph-name="integral" unicode="&#x222b;" horiz-adv-x="451" 
d="M260 16l-18 395c-15 324 60 390 138 390c22 0 52 -13 53 -41c0 -25 -19 -37 -39 -37c-29 0 -26 39 -47 39s-47 -29 -41 -160l17 -366c16 -345 -58 -419 -138 -419c-32 0 -54 20 -54 43c-1 23 20 40 45 40s25 -42 45 -42c29 0 44 62 39 158z" />
    <glyph glyph-name="approxequal" unicode="&#x2248;" horiz-adv-x="525" 
d="M457 403l31 -27c-24 -48 -61 -87 -115 -87c-36 0 -61 13 -101 36c-27 17 -52 31 -80 31c-41 0 -64 -31 -86 -67l-33 26c27 53 72 88 124 88c43 0 74 -23 97 -36c31 -17 51 -31 81 -31c35 0 57 24 82 67zM457 249l31 -27c-24 -48 -61 -87 -115 -87c-36 0 -61 13 -101 36
c-28 17 -52 31 -80 31c-42 0 -65 -33 -86 -67l-33 26c27 53 72 88 124 88c44 0 74 -23 97 -36c29 -16 50 -31 81 -31c35 0 57 24 82 67z" />
    <glyph glyph-name="notequal" unicode="&#x2260;" horiz-adv-x="547" 
d="M409 464l-38 -85h132v-48h-151l-57 -128h208v-48h-227l-46 -103l-38 16l38 87h-128v48h148l56 128h-204v48h223l46 102z" />
    <glyph glyph-name="lessequal" unicode="&#x2264;" horiz-adv-x="567" 
d="M522 97l-394 203v51l394 203v-58l-344 -168v-2l344 -171v-58zM524 11h-401v50h401v-50z" />
    <glyph glyph-name="greaterequal" unicode="&#x2265;" horiz-adv-x="568" 
d="M129 554l394 -203v-51l-394 -203v58l342 170v2l-342 169v58zM524 11h-400v50h400v-50z" />
    <glyph glyph-name="lozenge" unicode="&#x25ca;" horiz-adv-x="617" 
d="M573 319l-179 -382h-58l-179 382l180 384h57zM518 319l-151 330h-3l-152 -329l153 -331h2z" />
    <glyph glyph-name="uni00A0" unicode="&#xa0;" horiz-adv-x="250" 
 />
    <glyph glyph-name="uni00AD" unicode="&#xad;" horiz-adv-x="333" 
d="M282 255l-13 -63h-220l14 63h219z" />
    <glyph glyph-name="uni02C9" unicode="&#x2c9;" horiz-adv-x="333" 
d="M411 583l-11 -51h-301l11 51h301z" />
    <glyph glyph-name="zero.taboldstyle" unicode="&#xf643;" 
d="M202 -8c-110 0 -186 78 -186 206c0 170 138 296 268 296c96 0 200 -66 200 -198c0 -186 -140 -304 -282 -304zM206 16c120 0 194 190 194 318c0 78 -42 136 -110 136c-129 0 -190 -225 -190 -328c0 -96 44 -126 106 -126z" />
    <glyph glyph-name="one.taboldstyle" unicode="&#xf644;" 
d="M178 486h260v-16c-70 0 -88 -23 -106 -88l-77 -277c-4 -16 -9 -34 -9 -47c0 -38 19 -42 85 -42v-16h-275v16c50 0 94 4 110 61l69 246c15 53 25 103 25 117c0 22 -34 30 -82 30v16z" />
    <glyph glyph-name="two.taboldstyle" unicode="&#xf645;" 
d="M95 334l-17 12c34 95 111 148 196 148c92 0 148 -64 148 -130c0 -126 -264 -258 -300 -290v-2h146c96 0 104 16 126 62h18l-49 -134h-344v10l101 87c160 135 212 197 212 247c0 72 -46 94 -94 94c-80 0 -122 -69 -143 -104z" />
    <glyph glyph-name="three.taboldstyle" unicode="&#xf646;" 
d="M142 385l-14 13c30 42 77 96 158 96c86 0 148 -43 148 -127c0 -67 -68 -113 -162 -148v-2c22 -5 102 -33 102 -160s-130 -247 -288 -247c-42 0 -104 18 -104 56c0 26 14 44 48 44c46 0 84 -60 134 -60c48 0 130 60 130 156c0 120 -65 178 -180 178c-6 0 -10 3 -10 6
c0 6 6 7 21 10c90 18 223 61 223 162c0 60 -41 92 -90 92c-74 0 -99 -53 -116 -69z" />
    <glyph glyph-name="four.taboldstyle" unicode="&#xf647;" 
d="M351 385l-315 -323h224l93 321zM419 494h39l-121 -432h95l-15 -62h-98l-47 -172h-78l49 172h-259l10 62z" />
    <glyph glyph-name="five.taboldstyle" unicode="&#xf648;" 
d="M96 250l110 236h256l-26 -74h-228l-41 -90c80 -7 223 -60 223 -234c0 -134 -122 -278 -311 -278c-64 0 -93 26 -93 58c0 23 15 39 41 39c39 0 67 -57 115 -57c98 0 180 87 180 209c0 155 -147 182 -226 191z" />
    <glyph glyph-name="six.taboldstyle" unicode="&#xf649;" 
d="M521 684v-17c-117 -21 -257 -117 -332 -249l2 -2c25 12 47 24 103 24c99 0 162 -52 162 -184c0 -110 -84 -264 -248 -264c-122 0 -180 92 -180 227c0 120 116 425 493 465zM252 408c-100 0 -150 -152 -150 -256c0 -60 30 -136 106 -136c86 0 164 144 164 276
c0 38 -26 116 -120 116z" />
    <glyph glyph-name="seven.taboldstyle" unicode="&#xf64a;" 
d="M54 -190l370 602h-222c-58 0 -98 -16 -138 -69l-16 3l82 140h390l-396 -676h-70z" />
    <glyph glyph-name="eight.taboldstyle" unicode="&#xf64b;" 
d="M211 -8c-133 0 -201 88 -201 167c0 111 114 171 199 202c-44 47 -89 97 -89 163c0 100 76 146 182 146c82 0 174 -40 174 -138c0 -104 -112 -132 -164 -152c60 -54 116 -128 116 -206c0 -85 -76 -182 -217 -182zM212 16c82 0 140 53 140 134c0 72 -63 141 -126 194
c-45 -23 -146 -75 -146 -189c0 -96 70 -139 132 -139zM295 396c71 24 111 74 111 136c0 70 -36 114 -104 114c-64 0 -106 -42 -106 -104c0 -56 59 -113 99 -146z" />
    <glyph glyph-name="nine.taboldstyle" unicode="&#xf64c;" 
d="M-12 -196v16c132 34 278 142 336 276l-4 6c-46 -44 -92 -52 -130 -52c-78 0 -156 62 -156 180c0 134 114 264 250 264c104 0 178 -82 178 -218c0 -194 -170 -442 -474 -472zM234 94c50 0 93 26 109 60c20 41 45 110 45 180c0 82 -48 136 -102 136
c-94 0 -162 -112 -162 -246c0 -90 46 -130 110 -130z" />
    <glyph glyph-name="dollar.taboldstyle" unicode="&#xf653;" 
d="M282 420l54 221c-77 6 -135 -31 -135 -105c0 -54 39 -86 81 -116zM289 306l-68 -281c31 2 159 10 159 138c0 67 -36 97 -85 138zM497 612l-28 -114l-15 2c0 98 -51 119 -85 133l-56 -237c97 -74 142 -120 142 -200c0 -89 -46 -196 -240 -196l-21 -89h-35l22 91
c-86 16 -138 54 -150 65l27 123l16 3c9 -74 18 -139 115 -161l69 297c-70 47 -135 109 -135 180c0 108 96 167 218 159l17 63h34l-16 -68c19 -4 78 -20 121 -51z" />
    <glyph glyph-name="cent.taboldstyle" unicode="&#xf654;" 
d="M414 560l-42 -120c77 -3 100 -50 100 -80c0 -28 -22 -46 -47 -46s-40 14 -40 37c0 26 15 32 15 49c0 14 -18 20 -35 20l-137 -391c7 -3 16 -4 26 -4c60 0 107 41 143 81l16 -10c-25 -32 -83 -107 -188 -107c-3 0 -7 0 -10 1l-47 -133h-31l48 136c-55 10 -108 48 -108 154
c0 135 126 280 265 293l42 120h30zM202 41l132 376c-112 -23 -171 -181 -171 -270c0 -51 13 -87 39 -106z" />
    <glyph glyph-name="uni2215" unicode="&#x2215;" horiz-adv-x="167" 
d="M337 676l-455 -686h-51l455 686h51z" />
    <glyph glyph-name="uni03A9" unicode="&#x3a9;" horiz-adv-x="654" 
d="M583 129l-57 -129h-210l-2 16c63 81 179 208 217 348c55 202 -13 277 -103 277c-97 0 -198 -76 -255 -282c-38 -135 -1 -252 23 -342l-12 -17h-207l15 129l21 2c2 -63 14 -73 49 -73h96c-41 53 -110 153 -67 307c51 186 200 303 347 303c150 0 229 -110 177 -295
c-38 -139 -158 -246 -241 -315h99c38 0 50 8 88 73z" />
    <glyph glyph-name="a.superior" horiz-adv-x="276" 
d="M299 673l40 3l13 -1c-2 -7 -49 -173 -54 -203c-2 -9 -4 -18 -4 -23c0 -4 1 -6 3 -6c7 0 20 11 46 39l7 -10c-39 -44 -61 -66 -89 -66c-27 0 -32 16 -32 26c0 14 3 27 14 54l-2 1c-44 -63 -77 -81 -122 -81c-70 0 -77 53 -77 71c0 88 100 199 186 199c38 0 59 -15 61 -31
h2l6 26zM269 619c0 28 -12 39 -18 39c-71 0 -136 -123 -136 -173c0 -35 20 -45 28 -45c65 0 126 130 126 179z" />
    <glyph glyph-name="o.superior" horiz-adv-x="310" 
d="M262 676c77 0 100 -48 100 -88c0 -74 -89 -182 -193 -182c-71 0 -102 36 -102 86c0 88 96 184 195 184zM178 430c69 0 111 121 111 172c0 27 -5 52 -32 52c-67 0 -117 -114 -117 -172c0 -30 10 -52 38 -52z" />
    <glyph glyph-name="fi" unicode="&#xfb01;" 
d="M132 396h-87l7 32h87c28 96 79 253 242 253c46 0 100 -22 100 -69c0 -39 -33 -43 -42 -43c-21 0 -41 14 -41 41c0 26 13 22 13 33s-15 16 -35 16c-95 0 -123 -101 -160 -231h150c28 0 50 2 66 4s27 4 33 4l5 -3v-3c0 -3 -1 -10 -5 -25c-7 -28 -95 -342 -95 -357
c0 -9 7 -11 12 -11c19 0 61 50 77 69l16 -9c-42 -59 -86 -105 -131 -105c-31 0 -49 20 -49 51c0 37 56 227 85 334c1 3 1 6 1 8c0 6 -3 11 -16 11h-155l-72 -320c-28 -123 -84 -283 -201 -283c-65 0 -78 45 -78 62c0 15 10 40 37 40s39 -24 39 -37c0 -14 -9 -19 -9 -28
c0 -10 4 -13 24 -13c55 0 82 105 93 159c23 111 79 398 89 420z" />
    <glyph glyph-name="fl" unicode="&#xfb02;" 
d="M216 428h167l36 144v4c0 10 -9 20 -9 32c0 14 12 24 12 29c0 9 -12 23 -42 23c-109 0 -147 -161 -159 -212zM375 396h-166l-69 -310c-41 -179 -107 -290 -202 -290c-70 0 -79 48 -79 61c0 20 12 41 37 41c20 0 39 -17 39 -36c0 -15 -9 -19 -9 -28s3 -13 25 -13
c52 0 79 97 92 158c39 186 83 399 87 417h-89l6 32h91c32 116 97 254 251 254c14 0 31 -3 47 -5c16 -3 30 -6 38 -6s15 3 22 6c7 2 13 5 17 5s5 -4 5 -10c0 -4 -1 -8 -2 -13c-9 -33 -146 -589 -146 -611c0 -10 7 -12 12 -12c18 0 54 42 77 69l16 -9
c-62 -88 -99 -105 -133 -105c-28 0 -47 19 -47 52c0 56 63 267 80 353z" />
    <glyph glyph-name="onesuperior" unicode="&#xb9;" horiz-adv-x="300" 
d="M224 287v-16h-181v16c34 4 59 6 65 25l90 285c2 6 5 15 5 20c0 19 -16 19 -18 19l-37 -1v19c30 4 121 22 130 22c4 0 6 -2 6 -6c0 -3 -2 -8 -4 -15l-86 -274c-13 -42 -19 -64 -19 -73c0 -19 20 -21 49 -21z" />
    <glyph glyph-name="threesuperior" unicode="&#xb3;" horiz-adv-x="300" 
d="M149 608l-10 7c16 36 65 61 102 61c48 0 95 -24 98 -73c0 -46 -33 -67 -101 -90l4 -2c16 -7 59 -24 59 -85v-6c0 -67 -59 -152 -183 -152c-39 0 -75 8 -75 39c0 13 7 24 28 28c30 0 51 -36 84 -36c22 0 83 20 83 88c0 78 -49 102 -101 102h-12v9c57 9 147 35 147 93
c0 40 -31 53 -49 53c-41 0 -64 -27 -74 -36z" />
    <glyph glyph-name="twosuperior" unicode="&#xb2;" horiz-adv-x="300" 
d="M286 358l11 -8l-33 -79h-231v18l133 130c91 90 93 125 93 140c0 30 -29 66 -76 66c-58 0 -83 -42 -92 -53l-13 8c35 94 120 96 138 96c69 0 105 -55 108 -96c0 -40 -16 -67 -99 -141l-114 -110l2 -5h108c43 0 53 13 65 34z" />
    <glyph glyph-name="uni2010" unicode="&#x2010;" horiz-adv-x="333" 
d="M282 255l-13 -63h-220l14 63h219z" />
    </font>
</defs>
</svg>
